<?xml version="1.0" encoding="UTF-8" standalone="no"?>
<svg width="119px" height="104px" viewBox="0 0 119 104" version="1.1" xmlns="http://www.w3.org/2000/svg" xmlns:xlink="http://www.w3.org/1999/xlink">
    <!-- Generator: Sketch 39 (31667) - http://www.bohemiancoding.com/sketch -->
    <title>craig-stephenson-magician</title>
    <desc>Created with Sketch.</desc>
    <defs></defs>
    <g id="Index" stroke="none" stroke-width="1" fill="none" fill-rule="evenodd">
        <g id="Canvas:-1248px,-Viewport:-960px-+-48px-Gutters" transform="translate(-144.000000, -36.000000)">
            <g id="Page-Head" transform="translate(144.000000, 36.000000)">
                <g id="Site-Navigation">
                    <g id="Links">
                        <g id="craig-stephenson-magician">
                            <path d="M9.792,13.184 L9.792,11.24 L7.128,11.24 L7.128,13.16 C7.128,14.096 6.6,14.744 5.52,14.744 C4.44,14.744 3.888,14.096 3.888,13.208 L3.888,4.808 C3.888,3.92 4.44,3.272 5.52,3.272 C6.6,3.272 7.128,3.92 7.128,4.856 L7.128,6.776 L9.792,6.776 L9.792,4.832 C9.792,2.432 8.304,0.656 5.472,0.656 C2.616,0.656 0.864,2.576 0.864,5.048 L0.864,12.968 C0.864,15.44 2.616,17.36 5.472,17.36 C8.304,17.36 9.792,15.584 9.792,13.184 L9.792,13.184 Z M20.664,17.096 L20.664,16.208 C20.304,15.824 20.088,15.32 20.088,14.576 L20.088,11.648 C20.088,10.616 19.488,9.56 18.24,9.224 C19.488,8.84 20.04,7.952 20.04,6.752 L20.04,4.496 C20.04,2.264 18.576,1.016 16.392,1.016 L11.472,1.016 L11.472,17 L14.448,17 L14.448,10.376 L16.008,10.376 C16.848,10.376 17.232,11 17.232,11.744 L17.232,14.744 C17.232,16.136 17.688,17.096 18.864,17.096 L20.664,17.096 Z M17.136,6.896 C17.136,7.76 16.728,8.168 15.96,8.168 L14.448,8.168 L14.448,3.464 L16.08,3.464 C16.824,3.464 17.136,3.896 17.136,4.616 L17.136,6.896 Z M30.792,17 L27.6,1.016 L24.264,1.016 L21.048,17 L23.832,17 L24.408,13.856 L27.24,13.856 L27.768,17 L30.792,17 Z M26.856,11.504 L24.816,11.504 L25.896,5.336 L26.856,11.504 Z M34.896,17 L34.896,1.016 L31.92,1.016 L31.92,17 L34.896,17 Z M45.888,17 L45.888,8.888 L41.448,8.888 L41.448,11.048 L43.008,11.048 L43.008,13.28 C43.008,14.072 42.48,14.768 41.424,14.768 C40.392,14.768 39.84,14.072 39.84,13.28 L39.84,4.76 C39.84,3.968 40.344,3.272 41.4,3.272 C42.456,3.272 42.936,3.944 42.936,4.712 L42.936,6.488 L45.792,6.488 L45.792,4.832 C45.792,2.576 44.256,0.68 41.376,0.68 C38.496,0.68 36.816,2.648 36.816,4.832 L36.816,13.184 C36.816,15.488 38.28,17.36 40.92,17.36 C42.216,17.36 43.32,16.784 43.848,15.728 L44.256,17 L45.888,17 Z M60.552,17.096 L60.552,16.208 C60.192,15.824 59.976,15.32 59.976,14.576 L59.976,11.648 C59.976,10.616 59.376,9.56 58.128,9.224 C59.376,8.84 59.928,7.952 59.928,6.752 L59.928,4.496 C59.928,2.264 58.464,1.016 56.28,1.016 L51.36,1.016 L51.36,17 L54.336,17 L54.336,10.376 L55.896,10.376 C56.736,10.376 57.12,11 57.12,11.744 L57.12,14.744 C57.12,16.136 57.576,17.096 58.752,17.096 L60.552,17.096 Z M57.024,6.896 C57.024,7.76 56.616,8.168 55.848,8.168 L54.336,8.168 L54.336,3.464 L55.968,3.464 C56.712,3.464 57.024,3.896 57.024,4.616 L57.024,6.896 Z M64.872,17 L64.872,1.016 L61.896,1.016 L61.896,17 L64.872,17 Z M75.72,13.184 L75.72,11.24 L73.056,11.24 L73.056,13.16 C73.056,14.096 72.528,14.744 71.448,14.744 C70.368,14.744 69.816,14.096 69.816,13.208 L69.816,4.808 C69.816,3.92 70.368,3.272 71.448,3.272 C72.528,3.272 73.056,3.92 73.056,4.856 L73.056,6.776 L75.72,6.776 L75.72,4.832 C75.72,2.432 74.232,0.656 71.4,0.656 C68.544,0.656 66.792,2.576 66.792,5.048 L66.792,12.968 C66.792,15.44 68.544,17.36 71.4,17.36 C74.232,17.36 75.72,15.584 75.72,13.184 L75.72,13.184 Z M86.712,17 L86.712,1.016 L83.712,1.016 L83.712,7.784 L80.376,7.784 L80.376,1.016 L77.4,1.016 L77.4,17 L80.376,17 L80.376,10.448 L83.712,10.448 L83.712,17 L86.712,17 Z M97.536,17 L94.344,1.016 L91.008,1.016 L87.792,17 L90.576,17 L91.152,13.856 L93.984,13.856 L94.512,17 L97.536,17 Z M93.6,11.504 L91.56,11.504 L92.64,5.336 L93.6,11.504 Z M107.856,17.096 L107.856,16.208 C107.496,15.824 107.28,15.32 107.28,14.576 L107.28,11.648 C107.28,10.616 106.68,9.56 105.432,9.224 C106.68,8.84 107.232,7.952 107.232,6.752 L107.232,4.496 C107.232,2.264 105.768,1.016 103.584,1.016 L98.664,1.016 L98.664,17 L101.64,17 L101.64,10.376 L103.2,10.376 C104.04,10.376 104.424,11 104.424,11.744 L104.424,14.744 C104.424,16.136 104.88,17.096 106.056,17.096 L107.856,17.096 Z M104.328,6.896 C104.328,7.76 103.92,8.168 103.152,8.168 L101.64,8.168 L101.64,3.464 L103.272,3.464 C104.016,3.464 104.328,3.896 104.328,4.616 L104.328,6.896 Z M118.176,12.824 L118.176,5.336 C118.176,2.816 116.616,1.016 113.808,1.016 L109.2,1.016 L109.2,17 L113.808,17 C116.616,17 118.176,15.368 118.176,12.824 L118.176,12.824 Z M115.176,12.68 C115.176,13.808 114.696,14.432 113.592,14.432 L112.176,14.432 L112.176,3.584 L113.592,3.584 C114.696,3.584 115.176,4.208 115.176,5.36 L115.176,12.68 Z M9.432,31.944 C9.432,29.784 8.088,28.344 6.192,26.928 C4.416,25.632 3.624,24.936 3.624,23.592 C3.624,22.704 4.2,22.152 5.064,22.152 C6.072,22.152 6.576,22.872 6.576,23.856 L6.576,24.816 L9.288,24.816 L9.288,23.784 C9.288,21.408 7.608,19.68 5.088,19.68 C2.208,19.68 0.72,21.672 0.72,23.976 C0.72,26.208 2.496,27.792 4.128,28.968 C5.712,30.144 6.528,31.008 6.528,32.28 C6.528,33.264 6,33.888 4.944,33.888 C3.864,33.888 3.312,33.24 3.312,32.064 L3.312,31.128 L0.576,31.128 L0.576,32.232 C0.576,34.728 2.28,36.36 5.016,36.36 C7.656,36.36 9.432,34.512 9.432,31.944 L9.432,31.944 Z M19.328,22.656 L19.328,20.016 L10.448,20.016 L10.448,22.656 L13.4,22.656 L13.4,36 L16.4,36 L16.4,22.656 L19.328,22.656 Z M28.432,36 L28.432,33.336 L23.776,33.336 L23.776,28.896 L26.992,28.896 L26.992,26.544 L23.776,26.544 L23.776,22.584 L28.432,22.584 L28.432,20.016 L20.8,20.016 L20.8,36 L28.432,36 Z M38.784,26.304 L38.784,23.616 C38.784,21.312 37.416,20.016 35.16,20.016 L30.24,20.016 L30.24,36 L33.216,36 L33.216,29.88 L35.16,29.88 C37.416,29.88 38.784,28.584 38.784,26.304 L38.784,26.304 Z M35.904,26.376 C35.904,27.168 35.592,27.576 34.848,27.576 L33.216,27.576 L33.216,22.464 L34.848,22.464 C35.592,22.464 35.904,22.872 35.904,23.664 L35.904,26.376 Z M49.88,36 L49.88,20.016 L46.88,20.016 L46.88,26.784 L43.544,26.784 L43.544,20.016 L40.568,20.016 L40.568,36 L43.544,36 L43.544,29.448 L46.88,29.448 L46.88,36 L49.88,36 Z M59.752,36 L59.752,33.336 L55.096,33.336 L55.096,28.896 L58.312,28.896 L58.312,26.544 L55.096,26.544 L55.096,22.584 L59.752,22.584 L59.752,20.016 L52.12,20.016 L52.12,36 L59.752,36 Z M70.8,36 L70.8,20.016 L68.112,20.016 L68.112,29.496 L67.056,26.952 L64.104,20.016 L61.536,20.016 L61.536,36 L64.272,36 L64.272,26.64 L65.4,29.184 L68.496,36 L70.8,36 Z M81.464,31.944 C81.464,29.784 80.12,28.344 78.224,26.928 C76.448,25.632 75.656,24.936 75.656,23.592 C75.656,22.704 76.232,22.152 77.096,22.152 C78.104,22.152 78.608,22.872 78.608,23.856 L78.608,24.816 L81.32,24.816 L81.32,23.784 C81.32,21.408 79.64,19.68 77.12,19.68 C74.24,19.68 72.752,21.672 72.752,23.976 C72.752,26.208 74.528,27.792 76.16,28.968 C77.744,30.144 78.56,31.008 78.56,32.28 C78.56,33.264 78.032,33.888 76.976,33.888 C75.896,33.888 75.344,33.24 75.344,32.064 L75.344,31.128 L72.608,31.128 L72.608,32.232 C72.608,34.728 74.312,36.36 77.048,36.36 C79.688,36.36 81.464,34.512 81.464,31.944 L81.464,31.944 Z M92.176,31.992 L92.176,24.024 C92.176,21.504 90.448,19.68 87.64,19.68 C84.856,19.68 83.104,21.504 83.104,24.024 L83.104,31.992 C83.104,34.536 84.856,36.36 87.64,36.36 C90.448,36.36 92.176,34.536 92.176,31.992 L92.176,31.992 Z M89.176,32.184 C89.176,33.12 88.624,33.744 87.64,33.744 C86.68,33.744 86.128,33.12 86.128,32.184 L86.128,23.832 C86.128,22.896 86.68,22.272 87.64,22.272 C88.624,22.272 89.176,22.896 89.176,23.832 L89.176,32.184 Z M103.512,36 L103.512,20.016 L100.824,20.016 L100.824,29.496 L99.768,26.952 L96.816,20.016 L94.248,20.016 L94.248,36 L96.984,36 L96.984,26.64 L98.112,29.184 L101.208,36 L103.512,36 Z M107.864,22.752 L107.864,20.016 L105.512,20.016 L105.512,23.064 L106.592,23.064 C106.592,24.12 106.088,24.648 105.32,24.648 L105.32,25.344 C106.976,25.344 107.864,24.24 107.864,22.752 L107.864,22.752 Z M118.264,31.944 C118.264,29.784 116.92,28.344 115.024,26.928 C113.248,25.632 112.456,24.936 112.456,23.592 C112.456,22.704 113.032,22.152 113.896,22.152 C114.904,22.152 115.408,22.872 115.408,23.856 L115.408,24.816 L118.12,24.816 L118.12,23.784 C118.12,21.408 116.44,19.68 113.92,19.68 C111.04,19.68 109.552,21.672 109.552,23.976 C109.552,26.208 111.328,27.792 112.96,28.968 C114.544,30.144 115.36,31.008 115.36,32.28 C115.36,33.264 114.832,33.888 113.776,33.888 C112.696,33.888 112.144,33.24 112.144,32.064 L112.144,31.128 L109.408,31.128 L109.408,32.232 C109.408,34.728 111.112,36.36 113.848,36.36 C116.488,36.36 118.264,34.512 118.264,31.944 L118.264,31.944 Z" id="Home" fill="#FFFCFA"></path>
                            <path d="M27.568,103 L27.568,39.064 L18.736,39.064 L15.376,71.32 L14.224,84.664 L13.072,71.32 L9.616,39.064 L0.496,39.064 L0.496,103 L6.256,103 L6.256,53.368 L7.12,65.656 L11.056,103 L16.24,103 L20.368,65.656 L21.232,53.368 L21.232,103 L27.568,103 Z M53.416,103 L47.08,39.064 L39.88,39.064 L33.448,103 L39.4,103 L40.456,90.712 L45.832,90.712 L46.504,103 L53.416,103 Z M45.352,83.8 L41.032,83.8 L43.528,54.904 L45.352,83.8 Z M77.728,103 L77.728,71.8 L68.608,71.8 L68.608,77.848 L71.104,77.848 L71.104,94.072 C71.104,96.088 70.144,97.432 68.224,97.432 C66.4,97.432 65.44,96.088 65.44,94.072 L65.44,48.376 C65.44,46.648 66.496,45.304 68.224,45.304 C70.048,45.304 71.2,46.648 71.2,48.376 L71.2,61.336 L77.152,61.336 L77.152,49.24 C77.152,42.808 73.408,38.296 68.224,38.296 C63.04,38.296 58.816,42.808 58.816,49.24 L58.816,92.824 C58.816,100.312 62.848,103.768 67.168,103.768 C69.76,103.768 71.968,102.616 73.024,100.216 L74.272,103 L77.728,103 Z M91.576,103 L91.576,39.064 L84.856,39.064 L84.856,103 L91.576,103 Z M117.232,92.824 L117.232,80.536 L111.568,80.536 L111.568,93.496 C111.568,95.32 110.608,96.76 108.688,96.76 C106.672,96.76 105.712,95.32 105.712,93.496 L105.712,48.568 C105.712,46.744 106.672,45.304 108.688,45.304 C110.608,45.304 111.568,46.744 111.568,48.568 L111.568,61.432 L117.232,61.432 L117.232,49.24 C117.232,42.808 113.872,38.296 108.496,38.296 C103.312,38.296 98.992,42.808 98.992,49.24 L98.992,92.824 C98.992,99.352 103.312,103.768 108.496,103.768 C113.872,103.768 117.232,99.352 117.232,92.824 L117.232,92.824 Z" id="MAGIC" fill="#EC1F27"></path>
                        </g>
                    </g>
                </g>
            </g>
        </g>
    </g>
</svg>