<?xml version="1.0" encoding="UTF-8" standalone="no"?>
<svg width="48px" height="48px" viewBox="0 0 48 48" version="1.1" xmlns="http://www.w3.org/2000/svg" xmlns:xlink="http://www.w3.org/1999/xlink">
    <!-- Generator: Sketch 3.8.3 (29802) - http://www.bohemiancoding.com/sketch -->
    <title>icon-youtube</title>
    <desc>Created with Sketch.</desc>
    <defs></defs>
    <g id="Index" stroke="none" stroke-width="1" fill="none" fill-rule="evenodd">
        <g id="Canvas:-1248px,-Viewport:-960px-+-48px-Gutters" transform="translate(-259.000000, -3428.000000)" fill="#EC1F27">
            <g id="Page-Foot" transform="translate(0.000000, 3362.000000)">
                <g id="Social-Media" transform="translate(143.000000, 65.374332)">
                    <g id="icon-youtube" transform="translate(116.000000, 0.625668)">
                        <path d="M24,48 C37.254834,48 48,37.254834 48,24 C48,10.745166 37.254834,0 24,0 C10.745166,0 0,10.745166 0,24 C0,37.254834 10.745166,48 24,48 Z M27.5690919,21.2320669 C27.2502785,21.1893872 27.0636745,21.0651589 26.9359981,20.809843 C26.7758359,20.4897454 26.7758359,20.4912696 26.7758359,17.3017259 L26.7758359,14.3255805 L27.4195065,14.3255805 L28.0624215,14.3255805 L28.0760202,17.0692741 C28.0903744,20.0492301 28.086597,19.9798756 28.2633797,20.0248417 C28.4258083,20.065235 28.605613,19.9775892 28.8292356,19.7474238 L29.0437925,19.5271662 L29.0521028,16.9259923 L29.0596576,14.3255805 L29.7025727,14.3164348 L30.3454877,14.3088135 L30.3454877,17.7148042 L30.3454877,21.121557 L30.2578518,21.1398483 C30.1528399,21.1619503 29.1782683,21.160426 29.0996981,21.1375619 C29.0521028,21.1246056 29.044548,21.0804016 29.044548,20.8136536 L29.044548,20.504226 L28.8617214,20.6840903 C28.4416734,21.0964065 27.9883843,21.2884651 27.5690919,21.2320669 Z M24.3295856,19.9310989 C24.5501863,19.7619044 24.5516973,19.7474238 24.5630295,17.8321733 C24.5728508,16.3437195 24.5675624,16.09069 24.522989,15.8879615 C24.4625504,15.6135922 24.356783,15.4840289 24.1497809,15.4268686 C23.8823404,15.3552277 23.6375642,15.5091794 23.5514393,15.8041265 C23.4864679,16.0312433 23.4872233,19.4075107 23.5529503,19.6346275 C23.6028121,19.8053463 23.7622187,19.9920698 23.8800739,20.0179825 C24.0334367,20.0507544 24.2215517,20.0141718 24.3303411,19.9310989 L24.3295856,19.9310989 Z M23.8256792,21.2305426 C23.250002,21.160426 22.7211647,20.8189886 22.4665673,20.3525607 C22.2074371,19.8777493 22.1832616,19.6292926 22.1983713,17.5379884 C22.210459,15.918447 22.2149919,15.8170828 22.2784524,15.584631 C22.4303042,15.0320816 22.7241867,14.6555859 23.1797422,14.4277069 C23.8052812,14.1159928 24.4799265,14.1563861 25.0699579,14.5420274 C25.4461878,14.7866734 25.6743434,15.1418293 25.7967314,15.6699903 C25.8503706,15.9032043 25.855659,16.0823065 25.855659,17.7178527 C25.855659,19.7070306 25.8465932,19.8221133 25.6441241,20.2527207 C25.4499652,20.6680855 25.0102748,21.0339113 24.5516973,21.1627124 C24.3492282,21.2183484 23.9979291,21.2518825 23.8256792,21.2305426 Z M19.2210172,21.1207949 C19.1938199,21.0758288 19.1983528,18.4426451 19.2255501,18.0699601 C19.2610578,17.5921001 19.1809767,17.2156044 18.8410099,16.2537874 C18.7307095,15.9420733 18.5312623,15.3369364 18.3982975,14.9101396 C17.4365691,11.8242465 17.4871864,12.004873 17.5793551,12.0041109 C18.2132044,11.9987759 18.9951282,12.0025866 19.0041939,12.0117322 C19.0102378,12.0178293 19.2157289,12.7708208 19.4612605,13.6861475 C19.7075476,14.600712 19.9122832,15.3620869 19.9175715,15.378854 C19.9221044,15.3940967 20.0664015,14.8613629 20.2378958,14.1944929 C20.5967497,12.7952092 20.7984634,12.0231643 20.8060182,12.0163051 C20.8218833,12.0010623 21.000177,11.9980138 21.5841645,12.0010623 L22.2301015,12.004873 L22.2157474,12.1092858 C22.2044151,12.193883 21.7632137,13.6876717 21.3016143,15.2050867 C21.2517525,15.3727569 21.1225651,15.8048886 21.0160422,16.1661416 C20.9095192,16.5266324 20.7810873,16.9549535 20.7297145,17.1180508 L20.6367903,17.4152843 L20.6367903,19.2688017 C20.6367903,21.0072365 20.6330129,21.1238434 20.5816401,21.1375619 C20.4652959,21.1695717 19.2414153,21.1543289 19.2210172,21.1207949 Z M21.2253959,35.9865356 C20.4835127,35.9735792 19.6056428,35.9530015 19.2739862,35.9408074 C17.0475812,35.8600208 15.5192414,35.7738993 15.2140267,35.7114041 C14.7788691,35.6229962 14.2923388,35.3257627 14.0097886,34.9759418 C13.5580104,34.415771 13.3162562,33.7359447 13.1991566,32.6895305 C12.9279386,30.2567888 12.9339824,27.4193524 13.2157772,25.0719701 C13.3396762,24.043085 13.6471573,23.3000014 14.1631514,22.7817481 C14.4577893,22.4852768 14.741095,22.3206552 15.1180805,22.2231016 C15.9355119,22.0119897 22.3314214,21.8443195 26.222153,21.9312031 C28.4697115,21.9815042 30.8978303,22.0866791 31.5430118,22.1606064 C32.3778192,22.2566357 32.9640732,22.6925781 33.3697669,23.5194969 C33.6764926,24.1436871 33.7739497,24.6299306 33.8986042,26.1282922 C33.9960614,27.3141775 34.0202368,28.0534505 34.0021053,29.4230109 C33.9817072,31.0616056 33.8782062,32.5050933 33.7233324,33.315245 C33.5601484,34.1718871 33.1748526,34.9020145 32.6754791,35.2975636 C32.2909388,35.6031806 31.8807122,35.7396032 31.2347752,35.7761857 C31.0428828,35.7876178 30.8003731,35.8028605 30.6953611,35.811244 C30.323664,35.8402053 28.3307029,35.9209918 27.2375206,35.9522394 C25.6132346,35.9979676 22.7711118,36.0139725 21.2253959,35.9865356 Z M20.7403766,33.1955895 C20.9685321,33.1102302 21.2367281,32.9227444 21.4626172,32.6910547 C21.5661182,32.5843556 21.6696193,32.4974719 21.6922837,32.4974719 C21.722503,32.4974719 21.7330797,32.5843556 21.7330797,32.8495793 L21.7330797,33.2016866 L22.304224,33.2016866 L22.8753683,33.2016866 L22.8753683,29.8566669 L22.8753683,26.5124093 L22.304224,26.5124093 L21.7330797,26.5124093 L21.7330797,29.0922434 L21.7330797,31.6728396 L21.4867926,31.9190099 C21.2918783,32.1148791 21.2102863,32.1743258 21.0894092,32.2078598 C20.8854291,32.2650201 20.7554862,32.225389 20.6716277,32.0798208 C20.6081672,31.9715973 20.6066563,31.9212963 20.5975905,29.2408601 L20.5892802,26.5124093 L20.0181359,26.5124093 L19.4485026,26.5124093 L19.4485026,29.4092924 C19.4485026,32.5653021 19.4515245,32.6338945 19.6267963,32.9379872 C19.8186887,33.2702789 20.2674449,33.3746917 20.7403766,33.1955895 Z M26.8197391,33.2253129 C27.0048322,33.1712011 27.2284548,32.9494192 27.3289339,32.7230645 C27.5223373,32.2894085 27.5230928,32.2787386 27.5230928,29.840662 C27.5230928,27.83929 27.5170489,27.5923575 27.4679426,27.3759106 C27.3085359,26.683128 26.9610143,26.3805595 26.3762713,26.4247635 C26.0491476,26.4506762 25.7915283,26.5817637 25.4825362,26.8828079 C25.3480605,27.0131333 25.2279388,27.1205947 25.2143402,27.1205947 C25.2022525,27.1205947 25.1909202,26.4575354 25.1909202,25.6481458 L25.1909202,24.1756969 L24.6197759,24.1756969 L24.0486317,24.1756969 L24.0486317,28.6883107 L24.0486317,33.2016866 L24.6197759,33.2016866 L25.1909202,33.2016866 L25.1909202,32.8975939 C25.1909202,32.6956276 25.2030079,32.5935012 25.2264279,32.5935012 C25.2453149,32.5935012 25.3737468,32.7002004 25.512,32.831288 C25.9562234,33.2527498 26.3407636,33.3685946 26.8197391,33.2253129 Z M26.0831443,32.0729616 C26.157937,32.0218984 26.2070433,31.9510196 26.2455729,31.8405097 C26.2946792,31.6949416 26.2992121,31.5097422 26.2924128,29.7926473 C26.2856135,28.0031494 26.2818361,27.8979745 26.2244194,27.7806054 C26.0771005,27.4810855 25.7061589,27.4521243 25.366192,27.7142995 L25.2543807,27.7996588 L25.2543807,29.840662 L25.2543807,31.8816651 L25.3654365,31.9670245 C25.617012,32.1606073 25.8927629,32.2010006 26.0831443,32.0729616 Z M30.9023632,33.2131187 C31.5127925,33.0401135 31.9351069,32.6194139 32.0945135,32.0257091 C32.1209554,31.9243448 32.1519302,31.6354949 32.1625069,31.3847518 L32.1806385,30.9289938 L31.5928736,30.9289938 L31.0043532,30.9289938 L30.9899991,31.3374993 C30.9733785,31.8016407 30.9257831,31.9609274 30.7580661,32.1095441 C30.5797724,32.2673065 30.2518933,32.2787386 30.0388474,32.1339325 C29.7850055,31.9609274 29.7223005,31.6690289 29.7351437,30.7209303 L29.7442095,30.0487254 L30.9612907,30.041104 L32.178372,30.0319584 L32.1625069,29.0320345 C32.1428644,27.9162658 32.1201999,27.7470714 31.9343514,27.3507601 C31.5800304,26.600055 30.5986594,26.2212729 29.7834945,26.5207928 C29.1685323,26.7471475 28.8051455,27.1548908 28.6593375,27.7859404 C28.6079647,28.0084844 28.6019209,28.2081643 28.6019209,29.840662 C28.6019209,31.8427962 28.6087202,31.9243448 28.8111893,32.3343746 C29.1730652,33.0637398 30.0788879,33.4448083 30.9023632,33.2131187 Z M29.7389211,29.0228889 C29.7094573,28.9451509 29.7502533,28.0465912 29.7895384,27.9162658 C29.8809517,27.6098867 30.0751105,27.4605078 30.3810807,27.4605078 C30.6356781,27.4605078 30.7973512,27.5595856 30.9061406,27.7821297 C30.9748894,27.923125 30.9816888,27.9833339 30.9922655,28.5046356 L31.0028422,29.0724278 L30.3795697,29.0724278 C29.8439331,29.0724278 29.7547862,29.0655686 29.7389211,29.0228889 Z M17.7033394,29.2964961 L17.7192046,25.4073105 L18.4422007,25.3996891 L19.1644414,25.3905434 L19.1561311,24.7915037 L19.1470653,24.1917018 L17.0604244,24.1833183 L14.9752944,24.1749348 L14.9752944,24.7831202 L14.9752944,25.3905434 L15.6809145,25.3996891 L16.3865346,25.4073105 L16.3948449,29.2644863 C16.3986223,31.3855139 16.409199,33.1399535 16.4175093,33.1620555 C16.4288415,33.1933031 16.575405,33.2009245 17.0596689,33.1940652 L17.6874743,33.1856817 L17.7033394,29.2964961 Z" id="Combined-Shape"></path>
                    </g>
                </g>
            </g>
        </g>
    </g>
</svg>