<?xml version="1.0" encoding="UTF-8" standalone="no"?>
<svg width="48px" height="49px" viewBox="0 0 48 49" version="1.1" xmlns="http://www.w3.org/2000/svg" xmlns:xlink="http://www.w3.org/1999/xlink">
    <!-- Generator: Sketch 3.8.3 (29802) - http://www.bohemiancoding.com/sketch -->
    <title>icon-pinterest</title>
    <desc>Created with Sketch.</desc>
    <defs></defs>
    <g id="Index" stroke="none" stroke-width="1" fill="none" fill-rule="evenodd">
        <g id="Canvas:-1248px,-Viewport:-960px-+-48px-Gutters" transform="translate(-317.000000, -3428.000000)" fill="#EC1F27">
            <g id="Page-Foot" transform="translate(0.000000, 3362.000000)">
                <g id="Social-Media" transform="translate(143.000000, 65.374332)">
                    <g id="icon-pinterest" transform="translate(174.000000, 1.000000)">
                        <path d="M24,48 C37.254834,48 48,37.254834 48,24 C48,10.745166 37.254834,0 24,0 C10.745166,0 0,10.745166 0,24 C0,37.254834 10.745166,48 24,48 Z M12,24 C12,28.9134525 14.9405311,33.1354657 19.1471047,34.991063 C19.1120149,34.1528692 19.1400868,33.1467545 19.3534332,32.2351834 C19.5836227,31.261524 20.8889659,25.696143 20.8889659,25.696143 C20.8889659,25.696143 20.5071881,24.9299153 20.5071881,23.7982126 C20.5071881,22.0188147 21.5332159,20.690969 22.8090836,20.690969 C23.895466,20.690969 24.4204104,21.5108184 24.4204104,22.4929445 C24.4204104,23.5907808 23.7242274,25.2318909 23.3663107,26.7516463 C23.067345,28.0244591 24.0007356,29.0616181 25.2499349,29.0616181 C27.5111262,29.0616181 29.0340265,26.1434619 29.0340265,22.682032 C29.0340265,20.0531515 27.2725151,18.084666 24.0681081,18.084666 C20.4468335,18.084666 18.1912567,20.7996237 18.1912567,23.8306679 C18.1912567,24.8762935 18.4986439,25.6142992 18.9772698,26.1843838 C19.1990377,26.4468485 19.2299168,26.5526811 19.1499119,26.8546566 C19.0937681,27.0733772 18.9618302,27.6067733 18.90709,27.8170273 C18.8270851,28.1204139 18.5828596,28.2290687 18.3091586,28.1175917 C16.641688,27.4317968 15.8655001,25.5959548 15.8655001,23.5329257 C15.8655001,20.1237065 18.7232191,16.0357479 24.3951457,16.0357479 C28.952618,16.0357479 31.9521001,19.3518344 31.9521001,22.9106303 C31.9521001,27.6180621 29.3484318,31.1345249 25.5110036,31.1345249 C24.2225036,31.1345249 23.0112012,30.434619 22.5957372,29.6387582 C22.5957372,29.6387582 21.9023613,32.4031044 21.7549839,32.9379116 C21.5037404,33.8621825 21.0068679,34.7864534 20.5549103,35.5075259 C21.6272568,35.8264346 22.7613614,36 23.9375738,36 C30.528855,36 35.8723404,30.6265287 35.8723404,24 C35.8723404,17.3720602 30.528855,12 23.9375738,12 C17.344889,12 12,17.3720602 12,24 Z" id="Combined-Shape"></path>
                    </g>
                </g>
            </g>
        </g>
    </g>
</svg>