<?xml version="1.0" encoding="UTF-8" standalone="no"?>
<svg width="48px" height="48px" viewBox="0 0 48 48" version="1.1" xmlns="http://www.w3.org/2000/svg" xmlns:xlink="http://www.w3.org/1999/xlink">
    <!-- Generator: Sketch 3.8.3 (29802) - http://www.bohemiancoding.com/sketch -->
    <title>icon-twitter</title>
    <desc>Created with Sketch.</desc>
    <defs></defs>
    <g id="Index" stroke="none" stroke-width="1" fill="none" fill-rule="evenodd">
        <g id="Canvas:-1248px,-Viewport:-960px-+-48px-Gutters" transform="translate(-201.000000, -3428.000000)" fill="#EC1F27">
            <g id="Page-Foot" transform="translate(0.000000, 3362.000000)">
                <g id="Social-Media" transform="translate(143.000000, 65.374332)">
                    <g id="icon-twitter" transform="translate(58.000000, 0.625668)">
                        <path d="M24,48 C37.254834,48 48,37.254834 48,24 C48,10.745166 37.254834,0 24,0 C10.745166,0 0,10.745166 0,24 C0,37.254834 10.745166,48 24,48 Z M34.3696809,16 C35.750423,15.0455005 36.656069,13.858154 36.856383,12.5 C35.9760172,13.1388127 34.7548664,13.6414849 33.375,14 C32.4122842,12.7349415 30.9263056,12 29.3962766,12 C26.1267092,12 23.569976,14.7126968 23.4281915,18 C23.569976,18.5330059 23.6173834,18.9958111 23.9255319,19.5 C18.9681831,19.1847465 14.7587279,16.7753864 11.9893617,13 C11.4467448,14.0054889 11.1655696,15.0455005 10.9946809,16 C11.1655696,18.2556695 12.1742041,20.1103568 13.481383,21 C12.7708841,21.1677019 11.8897593,20.8920988 10.9946809,20.5 C11.1181621,23.4522606 13.0863889,25.9014878 15.4707447,26.5 C15.222994,26.5982955 14.7194941,26.669363 13.9787234,26.5 C13.8285609,26.669363 13.4689181,26.6329626 12.9840426,26.5 C13.8481777,28.9677885 15.958627,30.7219414 18.4547872,31 C16.5029954,32.3946266 14.0394423,33.3618374 11.4920213,33.5 C10.9023764,33.3618374 10.446284,33.3358371 10,33.5 C12.5289426,34.9963888 15.5319599,36 18.9521277,36 C29.270314,36 35.0147901,26.7681641 34.8670213,19 C35.0147901,18.4983389 35.0115206,18.2366026 34.8670213,18 C36.1166048,17.1237903 37.0876403,16.0560451 37.8510638,15 C36.8260819,15.3228369 35.7242672,15.6487072 34.3696809,16 Z" id="Combined-Shape"></path>
                    </g>
                </g>
            </g>
        </g>
    </g>
</svg>