<?xml version="1.0" encoding="UTF-8" standalone="no"?>
<svg width="48px" height="49px" viewBox="0 0 48 49" version="1.1" xmlns="http://www.w3.org/2000/svg" xmlns:xlink="http://www.w3.org/1999/xlink">
    <!-- Generator: Sketch 3.8.3 (29802) - http://www.bohemiancoding.com/sketch -->
    <title>icon-facebook</title>
    <desc>Created with Sketch.</desc>
    <defs></defs>
    <g id="Index" stroke="none" stroke-width="1" fill="none" fill-rule="evenodd">
        <g id="Canvas:-1248px,-Viewport:-960px-+-48px-Gutters" transform="translate(-143.000000, -3428.000000)" fill="#EC1F27">
            <g id="Page-Foot" transform="translate(0.000000, 3362.000000)">
                <g id="Social-Media" transform="translate(143.000000, 65.374332)">
                    <g id="icon-facebook" transform="translate(0.000000, 1.000000)">
                        <path d="M24,48 C37.254834,48 48,37.254834 48,24 C48,10.745166 37.254834,0 24,0 C10.745166,0 0,10.745166 0,24 C0,37.254834 10.745166,48 24,48 Z M25.4601064,36 L20.4867021,36 L20.4867021,24 L18,24 L18,20 L20.4867021,20 L20.4867021,17.5 C20.5344721,14.0070689 21.9648101,12 25.9574468,12 L29.4388298,12 L29.4388298,16 L27.4494681,16 C25.7173166,16.1368341 25.6127144,16.7147185 25.4601064,18 L25.4601064,20 L29.4388298,20 L28.9414894,24 L25.4601064,24 L25.4601064,36 Z" id="Combined-Shape"></path>
                    </g>
                </g>
            </g>
        </g>
    </g>
</svg>