<?xml version="1.0" encoding="UTF-8" standalone="no"?>
<svg width="48px" height="49px" viewBox="0 0 48 49" version="1.1" xmlns="http://www.w3.org/2000/svg" xmlns:xlink="http://www.w3.org/1999/xlink">
    <!-- Generator: Sketch 39 (31667) - http://www.bohemiancoding.com/sketch -->
    <title>icon-instagram</title>
    <desc>Created with Sketch.</desc>
    <defs></defs>
    <g id="Index" stroke="none" stroke-width="1" fill="none" fill-rule="evenodd">
        <g id="Canvas:-1248px,-Viewport:-960px-+-48px-Gutters" transform="translate(-317.000000, -3428.000000)" fill="#EC1F27">
            <g id="Page-Foot" transform="translate(0.000000, 3362.000000)">
                <g id="Social-Media" transform="translate(143.000000, 65.374332)">
                    <g id="icon-instagram" transform="translate(174.000000, 1.000000)">
                        <path d="M24,48 C37.254834,48 48,37.254834 48,24 C48,10.745166 37.254834,0 24,0 C10.745166,0 0,10.745166 0,24 C0,37.254834 10.745166,48 24,48 Z M24.0001111,10.0043889 C20.1991111,10.0043889 19.7223333,10.0205 18.2297778,10.0886111 C16.7400556,10.1566111 15.7227222,10.3931667 14.8325,10.7391667 C13.8986444,11.0905906 13.0526845,11.6414883 12.3536111,12.3534444 C11.6414945,13.052474 11.090443,13.8984372 10.7388889,14.8323333 C10.3931667,15.7226111 10.1566111,16.7399444 10.0888889,18.2296667 C10.0205,19.7222222 10.0043889,20.199 10.0043889,24 C10.0043889,27.801 10.0205,28.2777778 10.0888889,29.7703333 C10.1568889,31.2600556 10.3934444,32.2773889 10.7394444,33.1676111 C11.09087,34.1014659 11.6417675,34.9474255 12.3537222,35.6465 C13.0527934,36.3584589 13.8987539,36.909357 14.8326111,37.2607778 C15.7228889,37.6067778 16.7402222,37.8433333 18.2298889,37.9113333 C19.7226667,37.9794444 20.1992778,37.9955556 24.0002222,37.9955556 C27.8011667,37.9955556 28.278,37.9794444 29.7705556,37.9113333 C31.2602778,37.8433333 32.2776111,37.6067778 33.1678333,37.2607778 C35.0477635,36.5336927 36.5339149,35.0475413 37.261,33.1676111 C37.607,32.2773333 37.8435556,31.26 37.9115556,29.7703333 C37.9796667,28.2775556 37.9957778,27.8009444 37.9957778,24 C37.9957778,20.1990556 37.9796667,19.7222222 37.9115556,18.2296667 C37.8435556,16.7399444 37.607,15.7226111 37.261,14.8323889 C36.9095792,13.8985316 36.3586811,13.0525711 35.6467222,12.3535 C34.9476346,11.6414019 34.1016131,11.0903874 33.1676667,10.7388889 C32.2773889,10.3931667 31.2600556,10.1566111 29.7703333,10.0888889 C28.2777778,10.0205 27.801,10.0043889 24,10.0043889 L24.0001111,10.0043889 Z M24,12.5261667 C27.737,12.5261667 28.1796111,12.5404444 29.6555556,12.6077778 C31.0201111,12.6700556 31.7611111,12.898 32.2543333,13.0896667 C32.8622273,13.3140289 33.4121101,13.6717774 33.8635556,14.1366111 C34.3283893,14.5880566 34.6861378,15.1379394 34.9105,15.7458333 C35.1021667,16.239 35.3301667,16.9800556 35.3923889,18.3446111 C35.4597222,19.8204444 35.474,20.2630556 35.474,24.0001667 C35.474,27.7372778 35.4597222,28.1797778 35.3923889,29.6557222 C35.3301111,31.0202778 35.1021111,31.7612778 34.9105,32.2545 C34.43966,33.4750788 33.4749122,34.4398267 32.2543333,34.9106667 C31.7611667,35.1023333 31.0201111,35.3303333 29.6555556,35.3925556 C28.18,35.4598889 27.7373889,35.4741667 24,35.4741667 C20.2626111,35.4741667 19.8201667,35.4598889 18.3444444,35.3925556 C16.9798889,35.3302778 16.2388889,35.1022778 15.7456667,34.9106667 C15.1377719,34.6863061 14.5878887,34.3285574 14.1364444,33.8637222 C13.6716121,33.4122756 13.3138639,32.8623931 13.0895,32.2545 C12.8978333,31.7613333 12.6698333,31.0202778 12.6076111,29.6557222 C12.5402778,28.1799444 12.526,27.7372778 12.526,24.0001667 C12.526,20.2630556 12.5402778,19.8205556 12.6076111,18.3446111 C12.6698889,16.9800556 12.8978333,16.2390556 13.0895,15.7458333 C13.3138873,15.1379091 13.6716747,14.5880058 14.1365556,14.1365556 C14.5880022,13.6717233 15.1378847,13.313975 15.7457778,13.0896111 C16.2389444,12.8979444 16.98,12.6699444 18.3445556,12.6077222 C19.8203889,12.5403889 20.263,12.5261111 24.0001111,12.5261111 L24,12.5261667 Z M24,16.8130556 C20.0307602,16.8130556 16.8130556,20.0307602 16.8130556,24 C16.8130556,27.9692398 20.0307602,31.1869444 24,31.1869444 C27.9692398,31.1869444 31.1869444,27.9692398 31.1869444,24 C31.1869444,20.0307602 27.9692398,16.8130556 24,16.8130556 Z M24,28.6651667 C21.4235068,28.665136 19.3348684,26.5764561 19.3348889,23.999963 C19.3349093,21.4234698 21.4235809,19.3348231 24.0000741,19.3348333 C26.5765672,19.3348436 28.6652222,21.4235068 28.6652222,24 C28.6651915,26.5765094 26.5765094,28.6651667 24,28.6651667 Z M31.4708889,18.2085556 C32.3984204,18.2085556 33.1503333,17.4566427 33.1503333,16.5291111 C33.1503333,15.6015796 32.3984204,14.8496667 31.4708889,14.8496667 C30.5433573,14.8496667 29.7914444,15.6015796 29.7914444,16.5291111 C29.7914444,17.4566427 30.5433573,18.2085556 31.4708889,18.2085556 Z" id="Combined-Shape"></path>
                    </g>
                </g>
            </g>
        </g>
    </g>
</svg>