<?xml version="1.0" encoding="UTF-8" standalone="no"?>
<svg width="48px" height="48px" viewBox="0 0 48 48" version="1.1" xmlns="http://www.w3.org/2000/svg" xmlns:xlink="http://www.w3.org/1999/xlink">
    <!-- Generator: Sketch 39.1 (31720) - http://www.bohemiancoding.com/sketch -->
    <title>icon-vimeo</title>
    <desc>Created with Sketch.</desc>
    <defs></defs>
    <g id="Index" stroke="none" stroke-width="1" fill="none" fill-rule="evenodd">
        <g id="Canvas:-1248px,-Viewport:-960px-+-48px-Gutters" transform="translate(-259.000000, -3428.000000)" fill="#EC1F27">
            <g id="Page-Foot" transform="translate(0.000000, 3362.000000)">
                <g id="Social-Media" transform="translate(143.000000, 65.374332)">
                    <g id="icon-vimeo" transform="translate(116.000000, 0.625668)">
                        <path d="M24,48 C37.254834,48 48,37.254834 48,24 C48,10.745166 37.254834,0 24,0 C10.745166,0 0,10.745166 0,24 C0,37.254834 10.745166,48 24,48 Z M38,15.25 C38,12.3515625 35.6484375,10 32.75,10 L15.25,10 C12.3515625,10 10,12.3515625 10,15.25 L10,32.75 C10,35.6484375 12.3515625,38 15.25,38 L32.75,38 C35.6484375,38 38,35.6484375 38,32.75 L38,15.25 Z M33.5520833,19.296875 C33.4791667,21.265625 32.09375,23.9635417 29.4322917,27.390625 C26.6796875,30.9635417 24.3463542,32.75 22.4505208,32.75 C21.265625,32.75 20.28125,31.65625 19.4609375,29.4869792 C18.9140625,27.4817708 18.3671875,25.4947917 17.8203125,23.4895833 C17.21875,21.3203125 16.5625,20.2265625 15.8697917,20.2265625 C15.7239583,20.2265625 15.1953125,20.5546875 14.2838542,21.1744792 L13.3359375,19.953125 C14.3385417,19.078125 15.3046875,18.1848958 16.2890625,17.328125 C17.6015625,16.1614583 18.6223958,15.578125 19.2786458,15.5052083 C20.8645833,15.359375 21.8307292,16.4348958 22.1953125,18.7317708 C22.5963542,21.2291667 22.8697917,22.7604167 23.015625,23.3802083 C23.4895833,25.4401042 23.9635417,26.4609375 24.5104167,26.4609375 C24.9296875,26.4609375 25.5677083,25.8046875 26.4244792,24.4557292 C27.2630208,23.125 27.71875,22.1041667 27.7734375,21.4114583 C27.9010417,20.2447917 27.4453125,19.6614583 26.4244792,19.6614583 C25.9322917,19.6614583 25.4401042,19.7890625 24.9296875,20.0078125 C25.9140625,16.7447917 27.8098958,15.1588542 30.6171875,15.25 C32.6953125,15.3229167 33.6796875,16.6536458 33.5520833,19.296875 Z" id="Combined-Shape"></path>
                    </g>
                </g>
            </g>
        </g>
    </g>
</svg>