<?xml version="1.0" encoding="UTF-8"?>
<svg width="150px" height="150px" viewBox="0 0 150 150" version="1.1" xmlns="http://www.w3.org/2000/svg" xmlns:xlink="http://www.w3.org/1999/xlink">
    <!-- Generator: Sketch 43.2 (39069) - http://www.bohemiancoding.com/sketch -->
    <title>magic-circle-logo</title>
    <desc>Created with Sketch.</desc>
    <defs></defs>
    <g id="Page-1" stroke="none" stroke-width="1" fill="none" fill-rule="evenodd">
        <g id="magic-circle-logo" fill-rule="nonzero">
            <path d="M74.9491525,0 C33.6101695,0 0,33.6101695 0,74.9491525 C0,116.288136 33.6101695,149.898305 74.9491525,149.898305 C116.288136,149.898305 149.898305,116.288136 149.898305,74.9491525 C149.898305,33.6101695 116.288136,0 74.9491525,0 Z" id="Shape" fill="#FFFFFF"></path>
            <path d="M74.9491525,2.89830508 C35.2372881,2.89830508 2.89830508,35.2372881 2.89830508,74.9491525 C2.89830508,114.711864 35.2372881,147 74.9491525,147 C114.711864,147 147,114.661017 147,74.9491525 C147,35.2372881 114.711864,2.89830508 74.9491525,2.89830508 Z" id="Shape" fill="#25428D"></path>
            <g id="Group" transform="translate(7.627119, 7.627119)" fill="#FFFFFF">
                <path d="M89.8983051,67.3220339 C89.8983051,54.8644068 79.779661,44.7457627 67.3220339,44.7457627 C54.8644068,44.7457627 44.7457627,54.8644068 44.7457627,67.3220339 C44.7457627,79.779661 54.8644068,89.8983051 67.3220339,89.8983051 C79.779661,89.8983051 89.8983051,79.779661 89.8983051,67.3220339 Z" id="Shape"></path>
                <rect id="Rectangle-path" transform="translate(9.303458, 83.155736) rotate(-15.224465) translate(-9.303458, -83.155736) " x="5.38822146" y="82.4692989" width="7.83047234" height="1.37287502"></rect>
                <polygon id="Shape" points="15.8135593 90.0508475 10.3728814 92.2372881 10.3728814 92.1864407 14.4915254 86.6440678 13.779661 84.9152542 6.50847458 87.8135593 7.01694915 89.1355932 12.6610169 86.8983051 12.6610169 86.8983051 8.38983051 92.5932203 9.05084746 94.220339 16.3220339 91.3220339"></polygon>
                <path d="M18.6101695,95.440678 L17.1864407,93.0508475 L10.4745763,97.0677966 L11.8983051,99.4576271 C12.9661017,101.237288 15.1016949,102.559322 17.4915254,101.186441 C19.9830508,99.6610169 19.6779661,97.220339 18.6101695,95.440678 Z M16.6779661,99.8644068 C14.8474576,100.932203 13.5254237,99.8644068 12.8135593,98.5932203 L12.2033898,97.5762712 L16.8813559,94.8305085 L17.4915254,95.8474576 C18.2033898,97.1186441 18.6101695,98.7457627 16.6779661,99.8644068 Z" id="Shape"></path>
                <path d="M24.3050847,103.271186 C22.779661,101.440678 20.3898305,101.084746 18.4576271,102.661017 C16.5762712,104.237288 16.4237288,106.677966 18,108.508475 C19.5762712,110.389831 22.0169492,110.644068 23.8983051,109.067797 C25.8305085,107.491525 25.8813559,105.101695 24.3050847,103.271186 Z M22.9322034,107.949153 C21.6610169,109.016949 20.0338983,108.966102 18.9661017,107.745763 C17.9491525,106.525424 18.1525424,104.898305 19.4745763,103.830508 C20.6949153,102.813559 22.3728814,102.813559 23.3898305,104.033898 C24.4576271,105.305085 24.1525424,106.932203 22.9322034,107.949153 Z" id="Shape"></path>
                <path d="M26.440678,115.271186 C25.220339,114.20339 25.220339,112.627119 26.3389831,111.355932 C27.4067797,110.135593 29.0338983,109.932203 30.2542373,111 C30.7118644,111.40678 31.1186441,112.067797 31.0677966,112.779661 L32.440678,112.830508 C32.4915254,111.813559 31.8305085,110.745763 31.0677966,110.033898 C29.2372881,108.457627 26.8474576,108.40678 25.1694915,110.338983 C23.5423729,112.169492 23.7457627,114.610169 25.5762712,116.186441 C26.5932203,117.050847 27.6610169,117.355932 28.779661,117.152542 L28.4745763,115.830508 C27.8135593,116.033898 27.1016949,115.830508 26.440678,115.271186 Z" id="Shape"></path>
                <rect id="Rectangle-path" transform="translate(32.707749, 116.523862) rotate(-54.823984) translate(-32.707749, -116.523862) " x="28.7924284" y="115.83741" width="7.83064147" height="1.37290467"></rect>
                <polygon id="Shape" points="37.4745763 115.016949 33.5084746 121.779661 37.6271186 124.169492 38.2372881 123.101695 35.3389831 121.423729 38.6440678 115.728814"></polygon>
                <rect id="Rectangle-path" transform="translate(41.936924, 121.844718) rotate(-64.957147) translate(-41.936924, -121.844718) " x="38.0216325" y="121.158271" width="7.83058243" height="1.37289432"></rect>
                <path d="M48.8135593,120.254237 C47.4915254,119.79661 45.8644068,119.949153 45.3559322,121.474576 C44.8474576,122.847458 45.6610169,123.610169 46.4745763,124.220339 C47.2881356,124.830508 48,125.338983 47.6949153,126.101695 C47.3898305,126.915254 46.5762712,126.966102 45.9661017,126.711864 C45.4067797,126.508475 44.8474576,125.949153 44.6440678,125.338983 L43.3728814,125.898305 C43.7288136,126.813559 44.5932203,127.525424 45.5084746,127.830508 C46.9830508,128.338983 48.4576271,128.033898 49.0169492,126.457627 C49.5254237,125.033898 48.4576271,124.169492 47.6440678,123.508475 C46.8813559,122.949153 46.4237288,122.542373 46.6271186,121.881356 C46.8813559,121.169492 47.6949153,121.118644 48.3050847,121.322034 C48.8135593,121.525424 49.2711864,121.983051 49.4237288,122.440678 L50.5932203,121.830508 C50.3389831,121.067797 49.5762712,120.508475 48.8135593,120.254237 Z" id="Shape"></path>
                <path d="M58.6271186,122.898305 L56.0847458,122.491525 L54.8644068,130.220339 L56.2372881,130.423729 L56.7457627,127.220339 L57.8135593,127.372881 C59.440678,127.627119 60.9152542,127.271186 61.1694915,125.542373 C61.4745763,123.966102 60.4067797,123.152542 58.6271186,122.898305 Z M59.8474576,125.338983 C59.6949153,126.254237 58.8305085,126.355932 57.9661017,126.20339 L56.9491525,126.101695 L57.3050847,123.864407 L58.3220339,124.016949 C59.1864407,124.169492 59.9491525,124.423729 59.8474576,125.338983 Z" id="Shape"></path>
                <path d="M68.7457627,125.847458 C68.7966102,124.169492 67.3728814,123.559322 65.8983051,123.508475 L63.2033898,123.457627 L63,131.288136 L64.3728814,131.338983 L64.4745763,128.033898 L65.4915254,128.084746 L67.220339,131.440678 L68.8983051,131.491525 L66.9152542,127.983051 C67.9830508,127.728814 68.6949153,126.966102 68.7457627,125.847458 Z M64.4745763,126.864407 L64.5254237,124.677966 L65.7966102,124.728814 C66.5084746,124.728814 67.3728814,124.983051 67.3220339,125.847458 C67.3220339,126.813559 66.4067797,126.966102 65.5932203,126.966102 L64.4745763,126.864407 Z" id="Shape"></path>
                <rect id="Rectangle-path" transform="translate(71.643039, 127.337372) rotate(-94.102499) translate(-71.643039, -127.337372) " x="67.7279327" y="126.650957" width="7.83021279" height="1.37282952"></rect>
                <polygon id="Shape" points="78.1016949 128.644068 78.1016949 128.644068 74.8983051 123.101695 73.3728814 123.355932 77.7966102 130.525424 78.9661017 130.322034 80.6949153 122.084746 79.220339 122.338983"></polygon>
                <path d="M83.7966102,121.118644 L82.9322034,129.610169 L84.4067797,129.152542 L84.559322,127.220339 L87.8135593,126.20339 L89.0338983,127.677966 L90.559322,127.220339 L84.9661017,120.762712 L83.7966102,121.118644 Z M84.6101695,125.949153 L84.8135593,122.542373 L86.9491525,125.237288 L84.6101695,125.949153 Z" id="Shape"></path>
                <polygon id="Shape" points="94.0169492 118.322034 93.5084746 117.20339 87.8644068 119.79661 88.3728814 120.864407 90.559322 119.898305 93.3050847 125.898305 94.5762712 125.338983 91.8305085 119.288136"></polygon>
                <path d="M96.2033898,115.576271 L97.3728814,124.016949 L98.6949153,123.20339 L98.3389831,121.322034 L101.237288,119.542373 L102.813559,120.711864 L104.186441,119.898305 L97.220339,114.966102 L96.2033898,115.576271 Z M100.220339,118.830508 L98.1355932,120.101695 L97.5254237,116.745763 L100.220339,118.830508 Z" id="Shape"></path>
                <polygon id="Shape" points="109.016949 114.305085 104.59322 109.423729 103.576271 110.389831 108.813559 116.186441 112.322034 112.983051 111.508475 112.067797"></polygon>
                <path d="M115.983051,102.966102 C114.050847,101.338983 111.711864,101.694915 110.135593,103.525424 C108.559322,105.355932 108.610169,107.745763 110.542373,109.372881 C112.423729,110.949153 114.864407,110.694915 116.389831,108.864407 C117.966102,106.983051 117.813559,104.542373 115.983051,102.966102 Z M115.423729,108.050847 C114.40678,109.271186 112.779661,109.322034 111.508475,108.254237 C110.288136,107.186441 110.033898,105.559322 111.050847,104.338983 C112.118644,103.118644 113.745763,103.067797 114.966102,104.135593 C116.237288,105.20339 116.491525,106.830508 115.423729,108.050847 Z" id="Shape"></path>
                <path d="M122.949153,96.9661017 L122.949153,96.9661017 C122.847458,96.1016949 122.389831,95.0338983 121.169492,94.2711864 C119.135593,93.0508475 116.79661,93.7627119 115.576271,95.7966102 C114.355932,97.8813559 114.864407,100.220339 116.898305,101.440678 C119.084746,102.711864 121.220339,102.050847 122.491525,99.9152542 L124.881356,95.8474576 L123.915254,95.2881356 L122.949153,96.9661017 Z M121.423729,99.3559322 C120.610169,100.728814 119.084746,101.084746 117.661017,100.220339 C116.288136,99.4067797 115.881356,97.8305085 116.644068,96.5084746 C117.457627,95.1355932 118.983051,94.8305085 120.355932,95.6440678 C121.830508,96.4576271 122.237288,97.9830508 121.423729,99.3559322 Z" id="Shape"></path>
                <path d="M125.440678,86.7966102 L120.813559,84.9661017 L120.305085,86.2881356 L124.881356,88.0677966 C125.745763,88.4237288 126.457627,89.1355932 126,90.4067797 C125.491525,91.6779661 124.474576,91.6779661 123.610169,91.3728814 L119.033898,89.5932203 L118.525424,90.9152542 L123.152542,92.7457627 C124.932203,93.4576271 126.508475,92.5932203 127.169492,90.9152542 C127.830508,89.1864407 127.220339,87.4576271 125.440678,86.7966102 Z" id="Shape"></path>
                <rect id="Rectangle-path" transform="translate(125.370585, 83.255962) rotate(-164.692116) translate(-125.370585, -83.255962) " x="121.455416" y="82.5695362" width="7.83033718" height="1.37285132"></rect>
                <polygon id="Shape" points="14.0338983 64.8813559 2.59322034 64.6271186 2.6440678 60.4576271 0.559322034 60.4067797 0.305084746 71.1355932 2.44067797 71.1864407 2.54237288 67.0169492 13.9830508 67.3220339"></polygon>
                <polygon id="Shape" points="14.7966102 57.3050847 9 55.8305085 10.5254237 49.7288136 16.3728814 51.1525424 16.9830508 48.8135593 3.81355932 45.5084746 3.25423729 47.8474576 8.54237288 49.220339 6.96610169 55.3220339 1.6779661 54 1.11864407 56.3389831 14.2372881 59.6440678"></polygon>
                <polygon id="Shape" points="22.3728814 38.1864407 20.4915254 37.1694915 17.2372881 43.2711864 13.8813559 41.4915254 16.779661 36 14.9491525 35.0847458 12.1016949 40.5762712 9.05084746 38.9491525 12.1016949 33.1525424 10.220339 32.1864407 6.05084746 40.1186441 18.0508475 46.4237288"></polygon>
                <polygon id="Shape" points="28.3220339 30.6101695 21.1016949 22.4237288 21.1525424 22.4237288 31.3728814 27.9152542 32.6440678 26.7966102 28.5254237 15.9152542 28.5762712 15.8644068 35.7457627 24.0508475 37.5762712 22.4745763 28.5762712 12.3050847 25.779661 14.7966102 29.4915254 24.3050847 29.440678 24.3559322 20.440678 19.4745763 17.6440678 21.9661017 26.5932203 32.1355932"></polygon>
                <path d="M40.9322034,20.7457627 L40.7288136,17.440678 L46.0677966,14.9491525 L48.5084746,17.2372881 L51,16.0677966 L40.0169492,6.25423729 L38.0847458,7.11864407 L38.4915254,21.9152542 L40.9322034,20.7457627 Z M44.440678,13.4237288 L40.6271186,15.2033898 L40.220339,9.30508475 L44.440678,13.4237288 Z" id="Shape"></path>
                <path d="M58.2711864,15.1016949 C60.3559322,14.6949153 61.8813559,14.0338983 63.1016949,13.1186441 L61.779661,6.20338983 L56.6949153,7.16949153 L57.0508475,9.10169492 L59.8474576,8.59322034 L60.5084746,12 C59.7966102,12.4576271 58.9322034,12.7627119 57.9661017,12.9661017 C55.0169492,13.5254237 52.8305085,11.7966102 52.3220339,8.94915254 C51.8135593,6.20338983 53.2372881,3.71186441 56.0338983,3.20338983 C57.4576271,2.94915254 58.8813559,3.30508475 59.6949153,3.91525424 L61.0169492,1.83050847 C59.7457627,1.01694915 57.7627119,0.711864407 55.6271186,1.11864407 C51.5084746,1.88135593 48.9152542,5.18644068 49.7288136,9.45762712 C50.440678,13.5762712 54,15.9152542 58.2711864,15.1016949 Z" id="Shape"></path>
                <path d="M78.1525424,15.4067797 C80.3898305,15.8135593 82.3220339,15.2542373 83.7457627,13.9830508 L82.0677966,12.3050847 C81.2033898,13.1186441 79.9830508,13.5254237 78.559322,13.2711864 C75.8135593,12.7627119 74.3898305,10.4237288 74.9491525,7.52542373 C75.4576271,4.77966102 77.6949153,3 80.440678,3.45762712 C81.5084746,3.66101695 82.6779661,4.27118644 83.2372881,5.38983051 L85.3220339,4.27118644 C84.5084746,2.69491525 82.5762712,1.6779661 80.8474576,1.37288136 C76.7288136,0.610169492 73.1186441,2.74576271 72.3559322,7.01694915 C71.5932203,11.2881356 73.9830508,14.6949153 78.1525424,15.4067797 Z" id="Shape"></path>
                <path d="M95.4915254,22.4237288 C97.4745763,23.5932203 99.4576271,23.7457627 101.237288,23.0338983 L100.271186,20.8983051 C99.2033898,21.3559322 97.8813559,21.3050847 96.6610169,20.5932203 C94.2711864,19.1694915 93.7627119,16.4745763 95.2372881,13.9322034 C96.6610169,11.5423729 99.4067797,10.6271186 101.79661,12.0508475 C102.711864,12.6101695 103.627119,13.6271186 103.728814,14.8474576 L106.067797,14.5423729 C105.864407,12.7627119 104.389831,11.1355932 102.864407,10.2711864 C99.2542373,8.13559322 95.1355932,8.89830508 92.9491525,12.6101695 C90.7627119,16.220339 91.8305085,20.2372881 95.4915254,22.4237288 Z" id="Shape"></path>
                <rect id="Rectangle-path" transform="translate(106.622980, 21.811892) rotate(130.815084) translate(-106.622980, -21.811892) " x="99.8604734" y="20.6170126" width="13.5250125" height="2.38975786"></rect>
                <path d="M107.084746,31.7288136 L111.508475,28.0677966 L112.627119,29.440678 L110.186441,35.4915254 L112.016949,37.7288136 L114.355932,31.1186441 C115.881356,32.2881356 117.661017,32.440678 119.135593,31.1694915 C121.322034,29.3389831 120.559322,26.7966102 118.932203,24.8644068 L115.932203,21.2542373 L105.508475,29.8983051 L107.084746,31.7288136 Z M115.983051,24.4067797 L117.355932,26.0847458 C118.169492,27.0508475 118.779661,28.3728814 117.661017,29.3389831 C116.389831,30.4067797 115.169492,29.3898305 114.305085,28.3728814 L113.033898,26.8474576 L115.983051,24.4067797 Z" id="Shape"></path>
                <path d="M115.474576,45.1525424 C116.491525,47.1864407 118.067797,48.4067797 119.949153,48.8135593 L120.305085,46.4745763 C119.135593,46.2711864 118.067797,45.5084746 117.457627,44.2372881 C116.237288,41.7457627 117.254237,39.2033898 119.898305,37.8813559 C122.389831,36.6610169 125.186441,37.3728814 126.40678,39.8644068 C126.915254,40.8305085 127.067797,42.2033898 126.508475,43.2711864 L128.644068,44.2881356 C129.457627,42.7118644 129.101695,40.5254237 128.338983,38.9491525 C126.508475,35.1864407 122.644068,33.559322 118.728814,35.4915254 C114.915254,37.3728814 113.59322,41.3389831 115.474576,45.1525424 Z" id="Shape"></path>
                <polygon id="Shape" points="120.254237 59.1355932 122.338983 58.5762712 120.966102 53.0338983 132.050847 50.2881356 131.440678 47.9491525 118.271186 51.2033898"></polygon>
                <polygon id="Shape" points="134.033898 60.6610169 120.508475 61.1186441 120.813559 70.4237288 122.949153 70.3728814 122.694915 63.4576271 126.559322 63.3050847 126.762712 69.559322 128.79661 69.4576271 128.542373 63.2542373 132 63.1525424 132.254237 69.7118644 134.338983 69.6101695"></polygon>
                <path d="M31.3220339,64.4237288 C31.5762712,64.6271186 31.8305085,64.7288136 32.0338983,64.7288136 C32.2881356,64.7288136 32.5423729,64.5762712 32.7966102,64.3220339 C33.1016949,64.0169492 33.2542373,63.6101695 33.2542373,63.1525424 C33.2542373,62.6949153 33.1016949,62.3389831 32.7966102,62.0847458 C32.5932203,61.8813559 32.2372881,61.779661 31.9830508,61.779661 C31.7288136,61.779661 31.3728814,61.8813559 31.0677966,62.2881356 C30.6610169,62.8983051 30.559322,63.8135593 31.3220339,64.4237288 Z" id="Shape"></path>
                <path d="M18.3050847,67.3220339 C18.3050847,71.3389831 18.8135593,75.3050847 19.779661,79.1694915 L42.4576271,73.0677966 C42,71.1355932 41.7966102,69.2033898 41.7966102,67.2711864 C41.7966102,65.3389831 42,63.4067797 42.4576271,61.4745763 L19.779661,55.3728814 C18.8135593,59.3389831 18.3050847,63.3050847 18.3050847,67.3220339 Z M22.5254237,67.220339 C22.7288136,67.0169492 22.9830508,66.8135593 23.2881356,66.7118644 C23.5932203,66.559322 23.9491525,66.4576271 24.4067797,66.4067797 C24.8135593,66.3559322 25.220339,66.3050847 25.7288136,66.2542373 C26.6440678,66.2033898 27.6610169,66.1525424 28.6271186,66.0508475 C29.1355932,66 29.6440678,65.8983051 30.1525424,65.7966102 C29.6949153,65.440678 29.3389831,64.9322034 29.0847458,64.3728814 C28.8305085,63.8135593 28.779661,63.2033898 28.9322034,62.4915254 C29.1355932,61.5762712 29.440678,61.0677966 30.3050847,60.5084746 C30.7627119,60.2033898 31.4237288,60 32.0847458,60 C33.2542373,60 34.3728814,60.6610169 34.8305085,61.6271186 C35.2881356,62.4915254 35.2881356,63.1525424 34.8813559,64.1694915 C34.7288136,64.5254237 34.5762712,64.8813559 34.3220339,65.2372881 C34.220339,65.3898305 34.1186441,65.4915254 34.0169492,65.6440678 C34.4745763,65.6949153 34.9322034,65.8474576 35.3389831,66 C35.8983051,66.2033898 36.3559322,66.5084746 36.7627119,66.8644068 C37.2711864,67.3728814 37.6271186,67.9830508 37.779661,68.7457627 C37.779661,68.7966102 37.8305085,68.8983051 37.8305085,68.9491525 L37.8305085,69.0508475 C37.8305085,69.1016949 37.8813559,69.4576271 37.8813559,69.6101695 L37.8813559,70.2711864 C37.8813559,70.4237288 37.8813559,70.5762712 37.779661,70.6779661 C37.6779661,70.779661 37.5254237,70.8305085 37.3728814,70.8305085 C37.0677966,70.8305085 36.7118644,70.8813559 36.4067797,70.8813559 L36.2542373,70.8813559 L36.1525424,70.8813559 L36.0508475,70.8813559 C35.9491525,70.8305085 35.7966102,70.7288136 35.7966102,70.5762712 L35.7966102,70.3728814 L35.7966102,70.3220339 C35.8474576,69.9152542 35.7966102,69.5084746 35.7457627,69.1525424 C35.5932203,68.5932203 35.2881356,68.1355932 34.779661,67.8305085 C34.3220339,67.5762712 33.8135593,67.4237288 33.3050847,67.3728814 C32.6440678,67.3220339 31.9830508,67.3728814 31.1186441,67.5762712 C30.559322,67.6779661 29.9491525,67.779661 29.2881356,67.8813559 C29.0847458,67.8813559 28.9322034,67.9322034 28.7288136,67.9322034 L28.6779661,67.9322034 C28.4745763,67.9322034 28.220339,67.9830508 28.0169492,67.9830508 C27.6101695,68.0338983 27.2033898,68.0847458 26.7457627,68.0847458 C26.0847458,68.1355932 25.4745763,68.2372881 24.8644068,68.3898305 C24.7627119,68.440678 24.6610169,68.440678 24.6101695,68.4915254 C24.6610169,68.5932203 24.7627119,68.6440678 24.8644068,68.7457627 C25.1186441,68.9491525 25.4237288,69.1525424 25.7288136,69.3050847 C26.2372881,69.6101695 26.8474576,69.8135593 27.559322,69.9661017 C28.2711864,70.1186441 29.0338983,70.220339 29.5932203,70.2711864 C29.9491525,70.3220339 30.3050847,70.3220339 30.6610169,70.3220339 C30.9152542,70.3220339 31.220339,70.3220339 31.6271186,70.2711864 L31.6779661,70.2711864 L31.779661,70.2711864 L31.8305085,70.2711864 C32.0338983,70.2711864 32.1864407,70.4237288 32.2372881,70.6271186 L32.2372881,70.8813559 L32.2372881,70.9322034 L32.2372881,72.2542373 L32.2372881,72.4067797 C32.2372881,72.6101695 32.0847458,72.7627119 31.8813559,72.7627119 L31.8305085,72.7627119 L31.6779661,72.7627119 C31.4237288,72.7627119 31.1186441,72.7118644 30.8135593,72.7118644 C30.1525424,72.7118644 29.5423729,72.7627119 29.0338983,72.8135593 C28.6271186,72.8644068 28.220339,72.9152542 27.8135593,72.9152542 L27.7118644,72.9152542 C26.9491525,73.0169492 26.1355932,73.220339 25.4237288,73.6271186 C25.220339,73.7288136 25.0677966,73.8305085 24.9152542,73.9322034 C24.5084746,74.2372881 24.4067797,74.5932203 24.5084746,75.0508475 L24.5084746,75.2033898 L24.559322,75.4067797 L24.5084746,75.5084746 C24.4576271,75.559322 24.3559322,75.7118644 24.1525424,75.7118644 L24.1016949,75.7118644 L23.7966102,75.7118644 C23.5423729,75.7118644 23.2372881,75.7118644 22.9830508,75.7627119 L22.9322034,75.7627119 C22.5762712,75.7627119 22.5254237,75.5084746 22.4745763,75.3559322 C22.220339,74.3898305 22.4745763,73.5254237 23.1864407,72.8135593 C23.440678,72.559322 23.7457627,72.3559322 24.1525424,72.1525424 C24.7118644,71.8474576 25.3220339,71.6440678 26.0847458,71.4915254 C26.1355932,71.4915254 26.1864407,71.4915254 26.2372881,71.440678 C26.0338983,71.3898305 25.779661,71.3389831 25.5762712,71.2372881 C24.9152542,71.0338983 24.4067797,70.779661 23.9491525,70.5254237 C23.4915254,70.220339 23.0847458,69.8644068 22.779661,69.4576271 C22.5762712,69.2033898 22.4745763,69 22.3728814,68.7457627 C21.9661017,68.2372881 22.0677966,67.6779661 22.5254237,67.220339 Z" id="Shape"></path>
                <path d="M33.2542373,32.0847458 L49.8305085,48.6610169 C52.6779661,46.0169492 56.1355932,43.9830508 59.8474576,42.8644068 L53.7457627,20.1864407 C46.1186441,22.4237288 39.0508475,26.4915254 33.2542373,32.0847458 Z M53.9491525,32.7966102 C53.8983051,32.8474576 53.8474576,32.8474576 53.7966102,32.8983051 L51.5084746,34.220339 L51.5084746,34.220339 C51.9661017,34.8305085 52.4745763,35.440678 53.1355932,35.9491525 C54.1016949,36.8135593 54.9661017,37.3728814 55.779661,37.8305085 C55.9322034,37.9322034 56.0847458,37.9830508 56.2372881,38.0847458 L56.2881356,38.1355932 C56.440678,38.1864407 56.5423729,38.2881356 56.6949153,38.3389831 L56.7966102,38.3898305 L56.8474576,38.4915254 C56.8983051,38.6949153 56.8474576,38.8474576 56.6949153,38.9491525 L56.3389831,39.1525424 C56.1355932,39.3050847 55.8813559,39.4067797 55.6779661,39.559322 C55.4745763,39.6610169 55.2711864,39.6610169 55.0677966,39.6101695 L55.0169492,39.6101695 C54.9152542,39.559322 54.8135593,39.5084746 54.7118644,39.4576271 C53.5423729,38.8474576 52.4745763,38.0847458 51.559322,37.2711864 C50.8983051,36.6610169 50.2881356,36 49.779661,35.2372881 L48.3050847,36.1016949 C48.3559322,36.2033898 48.4067797,36.2542373 48.4067797,36.3559322 C48.8135593,37.2711864 49.1186441,38.2372881 49.2711864,39.3559322 C49.4237288,40.2711864 49.4745763,41.2372881 49.4237288,42.1525424 C49.4237288,42.4067797 49.4237288,42.6610169 49.3728814,42.8644068 C49.3728814,42.9661017 49.3220339,43.220339 49.0677966,43.3728814 C48.8644068,43.4745763 48.6101695,43.6271186 48.4067797,43.779661 L47.8983051,44.0847458 L47.7457627,44.0338983 C47.5932203,43.9830508 47.4915254,43.8305085 47.5423729,43.6779661 L47.5423729,43.3220339 L47.5423729,42.8135593 C47.5932203,41.0338983 47.3389831,39.3559322 46.779661,37.7288136 C46.7288136,37.5762712 46.6271186,37.3728814 46.5762712,37.220339 L46.5254237,37.1694915 C45.7627119,37.6271186 45,38.0338983 44.2372881,38.4915254 C44.0847458,38.5423729 44.0338983,38.5932203 43.8813559,38.6440678 C43.6779661,38.6440678 43.5762712,38.4915254 43.4745763,38.3389831 L42.8644068,37.4237288 C42.8135593,37.3728814 42.7627119,37.2711864 42.7118644,37.1186441 L42.7118644,37.0169492 L42.7627119,36.9152542 C42.8644068,36.7627119 42.9661017,36.7118644 43.0677966,36.6610169 L43.0677966,36.6610169 L43.1186441,36.6610169 L45.3559322,35.3898305 L45.3050847,35.3389831 C44.8983051,34.8813559 44.440678,34.4745763 43.8305085,34.0677966 C42.6610169,33.2542373 41.2881356,32.5423729 39.8644068,31.9322034 L39.8135593,31.9322034 C39.7118644,31.8813559 39.6101695,31.8813559 39.5084746,31.779661 L39.3050847,31.5762712 L39.4576271,31.3728814 C39.4576271,31.3220339 39.5084746,31.2711864 39.6101695,31.220339 L40.220339,30.8644068 C40.4237288,30.7627119 40.5762712,30.6610169 40.779661,30.559322 C40.9830508,30.4576271 41.1864407,30.4067797 41.3898305,30.5084746 C43.3220339,31.2711864 44.8474576,32.1864407 46.1186441,33.3559322 C46.4745763,33.7118644 46.8305085,34.0677966 47.1355932,34.4237288 C47.6949153,34.1186441 48.2542373,33.8135593 48.7627119,33.4576271 C48.5084746,32.8474576 48.3050847,32.1355932 48.2033898,31.4237288 C48,30.2542373 47.9491525,29.0338983 48.1016949,27.7118644 C48.1016949,27.5084746 48.1525424,27.2542373 48.2033898,27.0508475 L48.2033898,26.9491525 C48.2033898,26.8474576 48.2542373,26.7457627 48.2542373,26.6440678 C48.3050847,26.3898305 48.4067797,26.2372881 48.6101695,26.0847458 C48.8644068,25.9322034 49.1694915,25.779661 49.4237288,25.6271186 L49.8305085,25.4237288 C49.8813559,25.3728814 49.9322034,25.3728814 49.9830508,25.3728814 L50.2372881,25.3728814 L50.3389831,25.5762712 C50.3898305,25.7288136 50.3389831,25.8813559 50.3389831,25.9830508 L50.3389831,26.0338983 C50.1355932,27.4067797 50.0847458,28.779661 50.1355932,30.1525424 C50.1864407,31.0169492 50.3389831,31.779661 50.4915254,32.3898305 C50.4915254,32.440678 50.5423729,32.4915254 50.5423729,32.5423729 L52.779661,31.2711864 C52.8305085,31.220339 52.9322034,31.1694915 52.9830508,31.1694915 C53.0338983,31.1186441 53.0847458,31.1186441 53.1355932,31.1186441 L53.1355932,31.1186441 C53.1864407,31.1186441 53.3898305,31.1186441 53.4915254,31.3220339 C53.4915254,31.3220339 53.4915254,31.3728814 53.5423729,31.3728814 L53.7966102,31.9322034 C53.8983051,32.1355932 54,32.3389831 54.0508475,32.4915254 C54.2033898,32.4915254 54.1525424,32.6949153 53.9491525,32.7966102 Z" id="Shape"></path>
                <path d="M20.1864407,53.7966102 L42.8644068,59.8983051 C43.9830508,56.1864407 46.0169492,52.7288136 48.6610169,49.8813559 L32.0847458,33.2542373 C26.4915254,39.0508475 22.4237288,46.1186441 20.1864407,53.7966102 Z M36.2033898,43.4237288 L36.2542373,43.1186441 L36.559322,43.1694915 C36.8644068,43.220339 37.220339,43.2711864 37.5254237,43.3220339 C38.2372881,43.4745763 38.9491525,43.6271186 39.7118644,43.779661 L39.8135593,43.8305085 C40.0169492,43.8813559 40.220339,43.9322034 40.3728814,43.9830508 C40.5254237,44.0338983 40.7288136,44.0847458 40.779661,44.3898305 L40.8305085,44.7966102 C40.8813559,45 40.9322034,45.2542373 40.9322034,45.4576271 L40.9830508,45.7627119 L40.7288136,45.8644068 C40.5762712,45.9152542 40.4745763,45.9152542 40.2711864,45.8644068 L40.220339,45.8644068 C39.5084746,45.7118644 38.8474576,45.559322 38.1864407,45.4576271 C38.3898305,46.5254237 38.5932203,47.5932203 38.8474576,48.6610169 L38.8474576,48.7118644 C38.8474576,48.7627119 38.8474576,48.8135593 38.8983051,48.8135593 C38.8983051,48.8644068 38.9491525,49.0677966 38.8474576,49.1694915 C38.7966102,49.2711864 38.6949153,49.3220339 38.5423729,49.3220339 L38.4915254,49.3220339 L38.3898305,49.3220339 C37.6271186,49.220339 36.9661017,49.1694915 36.2542373,49.0677966 C36.4576271,49.9830508 36.6610169,50.8983051 36.9152542,51.7627119 L36.9661017,52.0169492 C37.0169492,52.1694915 36.9661017,52.3220339 36.9152542,52.3728814 C36.8644068,52.4237288 36.7627119,52.5254237 36.6101695,52.5254237 L36.3559322,52.5254237 C35.6440678,52.4745763 34.8813559,52.4745763 34.1694915,52.4237288 L34.1694915,52.4237288 L34.1694915,52.4745763 C34.1694915,52.5254237 34.220339,52.6271186 34.220339,52.6779661 C34.2711864,52.8305085 34.3220339,52.9830508 34.3728814,53.1355932 L34.5254237,53.5932203 C34.5762712,53.7457627 34.6271186,53.8983051 34.6779661,54.0508475 C34.7288136,54.2542373 34.8305085,54.5084746 34.8813559,54.7118644 L35.2372881,55.7288136 L34.8305085,55.8305085 C34.7288136,55.8305085 34.5762712,55.8813559 34.3220339,55.8813559 L33.7627119,55.8813559 L33.4576271,55.8813559 L33.2542373,55.8813559 L33.1525424,55.6779661 C33.0508475,55.4237288 31.8305085,51.2033898 31.779661,50.9491525 L31.7288136,50.5932203 L32.0847458,50.5932203 C32.7457627,50.5932203 33.4067797,50.5932203 34.0169492,50.6440678 L34.220339,50.6440678 L34.6779661,50.6440678 C34.4745763,49.6779661 34.2711864,48.7118644 34.0677966,47.6949153 L34.0677966,47.6440678 C34.0169492,47.4915254 34.0169492,47.3389831 34.1186441,47.1864407 C34.1694915,47.0847458 34.3220339,47.0338983 34.4237288,47.0338983 L34.6779661,47.0338983 C35.440678,47.0847458 36.1016949,47.1864407 36.7118644,47.2372881 C36.5084746,46.1186441 36.3050847,44.9491525 36.1016949,43.8305085 L36.1016949,43.779661 C36.2033898,43.7288136 36.1525424,43.5762712 36.2033898,43.4237288 Z M35.6440678,40.0169492 L35.7457627,40.1694915 C35.7457627,40.220339 35.7966102,40.2711864 35.7966102,40.3220339 L35.9491525,41.4915254 C36,41.6949153 35.8983051,41.7966102 35.8474576,41.8474576 C35.7966102,41.9491525 35.6949153,42 35.5423729,42 L35.1864407,41.9491525 C34.4237288,41.8474576 33.7118644,41.7457627 33.1016949,41.6440678 C33.2542373,43.0677966 33.4576271,44.440678 33.6610169,45.6101695 L33.7118644,45.8644068 L33.4576271,45.9661017 C33.3559322,46.0169492 33.2033898,46.0169492 33.0508475,46.0169492 L33,46.0169492 C32.2372881,45.9661017 31.5254237,45.9152542 30.9152542,45.8644068 C30.9661017,46.220339 31.0169492,46.5762712 31.0677966,46.8813559 C31.1694915,47.5932203 31.3220339,48.3050847 31.4237288,48.9661017 C31.4237288,49.0169492 31.4237288,49.0677966 31.4745763,49.1694915 L31.5254237,49.4745763 L31.3728814,49.6271186 C31.2711864,49.7288136 31.1186441,49.779661 30.9152542,49.779661 L30.8135593,49.779661 L28.5254237,49.779661 C28.7288136,50.8474576 28.9830508,51.9152542 29.2372881,52.9830508 L29.2372881,53.0338983 C29.2881356,53.1355932 29.3389831,53.3389831 29.1864407,53.4915254 C29.0847458,53.6440678 28.8813559,53.6949153 28.6271186,53.6949153 C28.4745763,53.6949153 28.3220339,53.6949153 28.220339,53.7457627 L27.7627119,53.7966102 L27.7118644,53.7966102 C27.4576271,53.7966102 27.3050847,53.6949153 27.2542373,53.440678 C27.2542373,53.3898305 27.2542373,53.3389831 27.2033898,53.2881356 L27.2033898,53.1864407 C26.8474576,51.7118644 26.5423729,50.1864407 26.2372881,48.6101695 C26.2372881,48.5084746 26.1864407,48.4576271 26.1864407,48.3559322 C26.1864407,48.1525424 26.3389831,47.9491525 26.5423729,47.8983051 L26.6949153,47.8983051 L26.7966102,47.8983051 C27.6101695,47.8983051 28.3728814,47.8474576 29.1864407,47.8474576 C28.9830508,46.7288136 28.8305085,45.6610169 28.7288136,44.6949153 L28.7288136,44.5423729 L28.7288136,44.3898305 C28.7288136,44.2881356 28.7288136,44.1355932 28.8305085,44.0338983 C28.9322034,43.9322034 29.0338983,43.8813559 29.1355932,43.8813559 L29.1864407,43.8813559 L29.3898305,43.8813559 L29.440678,43.8813559 C30.1016949,43.9322034 30.8135593,43.9322034 31.5254237,43.9830508 C31.3728814,42.7118644 31.220339,41.440678 31.0677966,40.1694915 L31.0677966,39.9661017 L31.0169492,39.4067797 L31.3728814,39.4067797 L31.3728814,39.4067797 L31.5254237,39.4067797 C32.8983051,39.559322 34.220339,39.7627119 35.4915254,40.0169492 L35.6440678,40.0169492 Z" id="Shape"></path>
                <path d="M96.6101695,51.7627119 L96.6101695,51.7627119 L96.6101695,51.7627119 C98.2881356,50.8474576 99.8644068,49.8813559 101.491525,48.9661017 C102.559322,48.3559322 103.677966,47.7457627 104.745763,47.0847458 L104.79661,47.0338983 L104.79661,47.0338983 C104.389831,46.3728814 103.983051,45.6610169 103.576271,44.9491525 L103.576271,44.9491525 L103.525424,44.9491525 C102.20339,45.7627119 100.881356,46.5762712 99.559322,47.3898305 C98.2372881,48.2033898 96.9152542,49.0169492 95.5932203,49.8305085 L95.5423729,49.8813559 L95.4915254,49.8813559 L95.8983051,50.5423729 C96.1525424,50.9491525 96.4067797,51.3559322 96.6101695,51.7627119 Z" id="Shape"></path>
                <path d="M114.457627,53.7966102 C112.271186,46.1186441 108.152542,39 102.610169,33.2542373 L86.0338983,49.8305085 C88.6779661,52.6779661 90.7118644,56.1355932 91.8305085,59.8474576 L114.457627,53.7966102 Z M91.5254237,47.7457627 C91.3728814,47.5423729 91.4237288,47.3389831 91.6271186,47.1864407 L91.8305085,47.0338983 C92.0338983,46.8813559 92.1864407,46.779661 92.3898305,46.6271186 C92.4915254,46.5762712 92.5423729,46.5254237 92.6949153,46.5254237 C92.8474576,46.5254237 92.9491525,46.6271186 93,46.6779661 C93.2033898,46.8813559 93.3559322,47.0338983 93.4576271,47.1864407 C93.8135593,47.5932203 94.1186441,48 94.4745763,48.4067797 L94.5254237,48.3559322 C97.5254237,46.4745763 100.169492,44.7966102 102.610169,43.220339 C102.610169,43.220339 102.661017,43.220339 102.661017,43.1694915 L102.610169,43.1186441 C102.559322,43.0169492 102.508475,42.8644068 102.457627,42.7627119 L102.305085,42.3559322 C102.20339,42.1525424 102.152542,41.8983051 102.050847,41.6949153 C102,41.4915254 101.898305,41.3389831 101.847458,41.1355932 C101.79661,41.0338983 101.745763,40.9322034 101.745763,40.779661 C101.694915,40.5762712 101.745763,40.3728814 101.949153,40.2711864 L102,40.2711864 C102.050847,40.2711864 102.050847,40.220339 102.101695,40.220339 L102.254237,40.1186441 C102.457627,40.0169492 102.661017,39.8644068 102.864407,39.7627119 C102.915254,39.7118644 103.016949,39.6610169 103.118644,39.6610169 C103.220339,39.6610169 103.372881,39.7118644 103.474576,39.9152542 L103.627119,40.220339 C103.779661,40.5254237 103.881356,40.779661 104.033898,41.0338983 L104.135593,41.2881356 C104.288136,41.5423729 104.389831,41.8474576 104.542373,42.1016949 C104.694915,42.4067797 104.898305,42.7627119 105.050847,43.0677966 C105.254237,43.4237288 105.457627,43.779661 105.610169,44.1355932 C105.915254,44.7457627 106.271186,45.3559322 106.728814,46.0677966 C107.186441,46.8305085 107.644068,47.4915254 108.101695,48.1016949 C108.355932,48.4576271 108.610169,48.8135593 108.813559,49.0677966 L108.864407,49.1694915 C108.966102,49.3220339 109.067797,49.4745763 109.169492,49.6271186 C109.220339,49.6779661 109.220339,49.6779661 109.220339,49.7288136 L109.322034,49.9830508 L109.118644,50.1355932 C109.118644,50.1355932 109.067797,50.1864407 109.016949,50.2372881 C108.711864,50.3898305 108.355932,50.5932203 108,50.7457627 C107.898305,50.7966102 107.847458,50.7966102 107.745763,50.7966102 C107.542373,50.7966102 107.440678,50.6949153 107.389831,50.5932203 C106.983051,50.0847458 106.576271,49.5762712 106.220339,49.0677966 C106.118644,48.9152542 105.966102,48.7627119 105.864407,48.6101695 C105.864407,48.6101695 105.864407,48.6101695 105.813559,48.6101695 L105.762712,48.6610169 C103.016949,50.1864407 100.220339,51.7627119 97.4745763,53.2881356 L97.4237288,53.3389831 L97.4237288,53.3898305 C97.6271186,53.7966102 97.779661,54.2542373 97.9322034,54.6101695 L98.0338983,54.9152542 C98.0847458,55.0169492 98.0847458,55.0677966 98.1355932,55.1694915 L98.1864407,55.3220339 C98.1864407,55.3728814 98.1864407,55.3728814 98.2372881,55.4237288 C98.3389831,55.6271186 98.2372881,55.8305085 98.0338983,55.9322034 C97.7288136,56.0847458 97.3728814,56.2881356 97.0169492,56.440678 C96.9661017,56.4915254 96.9152542,56.4915254 96.8135593,56.4915254 C96.7627119,56.4915254 96.559322,56.4915254 96.4576271,56.2372881 C96.4067797,56.1355932 96.3559322,56.0338983 96.3050847,55.9322034 L96.1016949,55.4745763 C96.0508475,55.3220339 95.9491525,55.1694915 95.8983051,55.0169492 C95.7966102,54.8135593 95.6949153,54.559322 95.5423729,54.3559322 L95.4915254,54.2542373 C95.440678,54.1525424 95.3389831,54 95.2881356,53.8983051 C94.779661,52.9322034 94.220339,51.9661017 93.6101695,51.0508475 L93.559322,51 C93.3559322,50.6440678 93.1016949,50.2881356 92.8983051,49.9830508 L92.6440678,49.5762712 C92.440678,49.2711864 92.1864407,48.9661017 91.9830508,48.6101695 C91.8813559,48.4576271 91.7288136,48.2542373 91.5762712,48.1016949 L91.3728814,47.8474576 C91.5762712,47.8474576 91.5254237,47.7966102 91.5254237,47.7457627 Z" id="Shape"></path>
                <path d="M49.8813559,85.9830508 L33.3050847,102.559322 C39.0508475,108.152542 46.1694915,112.220339 53.8474576,114.457627 L59.9491525,91.779661 C56.1864407,90.6610169 52.7288136,88.6271186 49.8813559,85.9830508 Z M56.2881356,98.8474576 C56.0338983,99.4576271 55.779661,100.067797 55.5254237,100.677966 L54.2033898,103.728814 C53.9491525,104.389831 53.6440678,105 53.3898305,105.661017 C53.0847458,106.372881 52.779661,107.135593 52.4237288,107.847458 C52.3220339,108.050847 52.2711864,108.20339 52.2711864,108.355932 C52.2711864,108.457627 52.220339,108.559322 52.2711864,108.610169 C52.2711864,108.762712 52.3220339,108.864407 52.4745763,108.915254 L52.8813559,109.016949 L52.220339,110.491525 L52.0169492,110.491525 C51.0508475,110.389831 50.4915254,109.627119 50.3898305,108.966102 C50.3389831,108.711864 50.3389831,108.457627 50.3898305,108.254237 C50.3898305,108.152542 50.3898305,108.101695 50.440678,108 C50.2372881,108.152542 50.0338983,108.305085 49.8305085,108.40678 C49.5254237,108.559322 49.2711864,108.661017 49.0169492,108.711864 C48.7627119,108.762712 48.5084746,108.762712 48.2542373,108.711864 C47.8474576,108.610169 47.5423729,108.355932 47.2881356,107.949153 C47.1864407,107.745763 47.0847458,107.491525 47.0847458,107.186441 L47.0847458,106.474576 C46.7288136,106.677966 46.3728814,106.881356 45.9152542,106.983051 C45.8135593,107.033898 45.7118644,107.033898 45.559322,107.033898 L45.3559322,107.033898 C44.7457627,107.033898 44.2881356,106.728814 44.0338983,106.118644 C43.779661,105.610169 43.779661,105.050847 44.0338983,104.491525 C44.1864407,104.084746 44.3898305,103.627119 44.5932203,103.220339 C44.9491525,102.508475 45.3559322,101.745763 45.8135593,100.983051 C46.3220339,100.067797 46.8813559,99.1016949 47.4915254,97.9322034 C47.6440678,97.6271186 47.8474576,97.3220339 48,97.0169492 L48.1525424,96.7627119 C48.4067797,96.3050847 48.6101695,95.8983051 48.7627119,95.4915254 C48.8135593,95.3389831 48.8644068,95.1864407 48.9152542,95.0338983 C49.0677966,94.4745763 48.9152542,94.0169492 48.4576271,93.6610169 C48.2542373,93.5084746 48.0508475,93.4067797 47.8474576,93.3050847 L47.7966102,93.3050847 C47.7457627,93.3050847 47.7457627,93.2542373 47.6949153,93.2542373 C47.6440678,93.2542373 47.5423729,93.2033898 47.4915254,93.1525424 C47.4915254,93.1525424 47.440678,93.1525424 47.440678,93.1016949 C47.3898305,93.1525424 47.3898305,93.2033898 47.3898305,93.2033898 C47.3389831,93.2542373 47.3389831,93.3050847 47.2881356,93.3559322 C47.2372881,93.4576271 47.1355932,93.559322 47.0847458,93.6610169 L46.9322034,93.9152542 C46.8813559,93.9661017 46.8305085,94.1186441 46.6779661,94.1186441 L46.6271186,94.1186441 L46.5762712,94.1186441 C46.3728814,94.0169492 46.3220339,93.8644068 46.3220339,93.7627119 L46.3220339,93.7118644 C46.1694915,92.9491525 45.9661017,92.0847458 45.7627119,91.1694915 C45.7627119,91.0677966 45.7627119,90.9661017 45.8644068,90.8644068 C45.9661017,90.7627119 46.0677966,90.7118644 46.1694915,90.6610169 C46.9322034,90.4576271 47.7457627,90.2033898 48.559322,89.9491525 L48.6101695,89.9491525 C48.6610169,89.9491525 48.7118644,89.8983051 48.7627119,89.8983051 C48.8644068,89.8983051 48.9661017,89.8983051 49.0169492,89.9491525 C49.1186441,90 49.1694915,90.1525424 49.0677966,90.3559322 L48.6101695,91.1186441 C48.6101695,91.1186441 48.6610169,91.1186441 48.6610169,91.1694915 C49.0169492,91.3728814 49.3220339,91.5254237 49.5762712,91.7288136 C49.9830508,92.0338983 50.3389831,92.3389831 50.5932203,92.7966102 C50.8983051,93.2542373 51,93.8135593 50.9491525,94.4745763 C50.8983051,94.9322034 50.7966102,95.440678 50.5423729,96.0508475 C50.3898305,96.4576271 50.1355932,96.9152542 49.8813559,97.4237288 C49.5254237,98.0847458 49.1694915,98.7457627 48.9152542,99.2542373 C48.6610169,99.7118644 48.4576271,100.169492 48.2033898,100.627119 L48.2033898,100.677966 C48.1016949,100.881356 47.9491525,101.135593 47.8474576,101.338983 C47.2372881,102.508475 46.6271186,103.677966 46.0169492,104.847458 C46.5762712,104.694915 47.0847458,104.389831 47.5423729,103.983051 C47.9491525,103.627119 48.3050847,103.169492 48.6610169,102.610169 C49.0677966,102 49.3728814,101.338983 49.6779661,100.779661 C50.0338983,100.118644 50.3898305,99.4067797 50.6949153,98.7457627 C51.0508475,98.0847458 51.3559322,97.4237288 51.7118644,96.8135593 C51.7627119,96.7118644 51.8135593,96.6101695 51.8644068,96.5084746 L51.9152542,96.4067797 C51.9661017,96.3559322 51.9661017,96.2542373 52.0169492,96.2033898 C52.1186441,96 52.220339,95.9491525 52.3728814,95.9491525 C52.4745763,95.9491525 52.5254237,96 52.5762712,96 C52.9322034,96.2033898 53.2372881,96.3559322 53.5423729,96.559322 C53.8474576,96.7118644 53.7966102,96.9152542 53.6949153,97.1186441 C53.440678,97.5762712 53.2372881,98.0847458 52.9830508,98.5423729 L52.0677966,100.423729 C51.7627119,101.084746 51.4576271,101.694915 51.1016949,102.355932 C50.440678,103.728814 49.779661,105.101695 49.0677966,106.525424 C49.3220339,106.423729 49.5762712,106.322034 49.8305085,106.169492 C50.3389831,105.864407 50.7457627,105.457627 51.1525424,104.898305 C51.4576271,104.491525 51.7627119,103.983051 52.0677966,103.372881 C52.7288136,102 53.3898305,100.525424 54.0508475,99.1525424 L54.2033898,98.8474576 C54.3559322,98.5423729 54.4576271,98.2881356 54.6101695,97.9830508 L54.7118644,97.7288136 C54.7118644,97.6779661 54.7627119,97.6271186 54.7627119,97.6271186 C54.8644068,97.4237288 55.0169492,97.4237288 55.0677966,97.4237288 C55.1186441,97.4237288 55.1694915,97.4237288 55.220339,97.4745763 C55.2711864,97.4745763 55.3220339,97.5254237 55.3728814,97.5254237 C55.6779661,97.6779661 55.9830508,97.8305085 56.2372881,98.0338983 C56.2881356,98.0338983 56.2881356,98.0847458 56.3389831,98.0847458 L56.4915254,98.2372881 L56.3898305,98.4915254 C56.3389831,98.6949153 56.2881356,98.7457627 56.2881356,98.8474576 Z" id="Shape"></path>
                <path d="M116.338983,67.3220339 C116.338983,63.3050847 115.830508,59.3389831 114.864407,55.4745763 L92.1864407,61.5762712 C92.6440678,63.5084746 92.8474576,65.440678 92.8474576,67.3728814 C92.8474576,69.3050847 92.6440678,71.2372881 92.1864407,73.1694915 L114.864407,79.2711864 C115.830508,75.3050847 116.338983,71.3389831 116.338983,67.3220339 Z M107.644068,73.220339 C107.135593,73.9322034 106.322034,74.3898305 105.40678,74.440678 L105.050847,74.440678 C104.186441,74.440678 103.372881,74.1355932 102.610169,73.5762712 C101.59322,72.8135593 100.881356,71.7966102 100.372881,70.4745763 C99.9152542,69.3050847 99.7627119,68.0847458 99.8644068,66.9152542 C99.9152542,66.3559322 100.016949,65.7457627 100.271186,64.9830508 C100.576271,64.0677966 100.983051,63.2033898 101.389831,62.440678 C101.491525,62.2881356 101.542373,62.1355932 101.644068,61.9830508 C101.745763,61.779661 101.898305,61.5254237 102,61.3220339 C102.152542,61.0677966 102.355932,60.9152542 102.661017,60.9152542 L102.762712,60.9152542 L103.220339,60.9152542 L103.271186,60.9152542 L103.576271,60.9152542 L103.576271,60.9152542 C103.779661,60.9152542 103.881356,60.9661017 103.983051,61.1186441 C104.033898,61.1694915 104.084746,61.3220339 103.983051,61.5254237 C103.881356,61.7288136 103.779661,61.8813559 103.677966,62.0847458 L103.372881,62.6440678 C102.864407,63.6610169 102.457627,64.5254237 102.254237,65.3389831 C102,66.1525424 101.847458,66.8644068 101.847458,67.5254237 C101.79661,68.2881356 101.949153,69.0508475 102.254237,69.8644068 C103.016949,69.0508475 103.983051,68.6440678 105.20339,68.7457627 C106.881356,68.8983051 107.847458,70.0169492 108.152542,71.0338983 C108.20339,71.7966102 108.050847,72.559322 107.644068,73.220339 Z M112.118644,70.779661 C111.915254,71.6440678 111.559322,72.5084746 111.101695,73.5762712 C111,73.8305085 110.847458,74.1355932 110.694915,74.3898305 L110.389831,75 C110.288136,75.2033898 110.084746,75.3559322 109.881356,75.3559322 L109.779661,75.3559322 C109.525424,75.3050847 109.271186,75.3050847 109.016949,75.2542373 L108.508475,75.2033898 L108.457627,75 C108.355932,74.7457627 108.508475,74.5423729 108.559322,74.4915254 L108.559322,74.440678 C108.813559,73.9830508 109.118644,73.3220339 109.372881,72.6610169 C109.830508,71.5932203 110.084746,70.7288136 110.288136,69.8644068 C110.440678,69.0508475 110.59322,68.2372881 110.542373,67.3728814 C110.491525,66.559322 110.389831,65.7966102 110.135593,65.0847458 C109.627119,65.7457627 108.966102,66.1525424 108.152542,66.3559322 C107.898305,66.4067797 107.59322,66.4576271 107.338983,66.4576271 C105.864407,66.4576271 104.644068,65.5932203 104.237288,64.2711864 C103.983051,63.4576271 104.084746,62.5932203 104.542373,61.8305085 C105.050847,60.9661017 105.915254,60.3559322 106.983051,60.1525424 C108.101695,59.8983051 109.067797,60.1525424 109.830508,60.8644068 C110.491525,61.5254237 111.050847,62.1864407 111.40678,62.9491525 C111.762712,63.6610169 112.016949,64.4237288 112.220339,65.2881356 C112.423729,66.2542373 112.525424,67.1694915 112.525424,68.0847458 C112.525424,68.8983051 112.372881,69.7627119 112.118644,70.779661 Z" id="Shape"></path>
                <path d="M104.745763,70.2711864 L104.745763,70.2711864 C104.288136,70.2711864 103.932203,70.4237288 103.627119,70.6271186 C103.372881,70.8305085 103.220339,71.1355932 103.220339,71.440678 C103.220339,72.1525424 103.932203,72.7118644 104.745763,72.7627119 L104.847458,72.7627119 L104.847458,72.7627119 C105.610169,72.7627119 106.271186,72.2542373 106.271186,71.5423729 C106.271186,70.8813559 105.559322,70.2711864 104.745763,70.2711864 Z" id="Shape"></path>
                <path d="M107.644068,61.8813559 L107.542373,61.8813559 C106.677966,61.9322034 106.016949,62.5932203 106.016949,63.4067797 C106.016949,64.1186441 106.627119,64.7288136 107.440678,64.7288136 L107.491525,64.7288136 C108.305085,64.7288136 109.016949,64.0169492 109.016949,63.2542373 C109.016949,62.8983051 108.915254,62.5932203 108.661017,62.3389831 C108.355932,61.9830508 108,61.8813559 107.644068,61.8813559 Z" id="Shape"></path>
                <path d="M55.4745763,19.779661 L61.5762712,42.4576271 C65.3898305,41.5932203 69.3559322,41.5932203 73.1694915,42.4576271 L79.2711864,19.779661 C71.440678,17.8474576 63.2033898,17.8474576 55.4745763,19.779661 Z M67.4237288,28.4237288 C67.4745763,28.0677966 67.5762712,27.7118644 67.6271186,27.3559322 C67.779661,26.6440678 67.9830508,25.9830508 68.2372881,25.4237288 C68.4915254,24.8135593 68.8474576,24.3050847 69.2033898,23.8983051 C69.8135593,23.2881356 70.4237288,22.8305085 71.440678,22.6271186 C71.5423729,22.6271186 71.7457627,22.5762712 71.8474576,22.5762712 C72.0508475,22.5762712 72.3050847,22.5762712 72.4576271,22.6271186 C73.6271186,22.8813559 74.440678,23.5932203 74.7966102,24.7118644 C75.1525424,25.7288136 75.1525424,26.6949153 74.8983051,27.6610169 C74.7966102,27.9661017 74.6949153,28.3220339 74.5423729,28.6271186 C74.440678,28.8305085 74.2881356,28.9322034 74.0847458,28.9830508 L73.5254237,28.9830508 L73.0169492,28.9830508 C72.8135593,28.9830508 72.7118644,28.8813559 72.6610169,28.8305085 C72.6101695,28.779661 72.559322,28.6779661 72.6101695,28.4745763 C72.7627119,28.0677966 72.8644068,27.7118644 72.9152542,27.3050847 C72.9661017,26.9491525 73.0169492,26.5932203 73.0169492,26.2881356 C73.0169492,25.9830508 72.9152542,25.6779661 72.7118644,25.3728814 C72.4067797,24.9152542 71.8983051,24.7627119 71.3898305,24.9661017 C71.1355932,25.0677966 70.9322034,25.220339 70.6779661,25.4237288 C70.4745763,25.6779661 70.2711864,25.9322034 70.1186441,26.2881356 C69.8644068,26.8474576 69.6610169,27.4576271 69.4576271,28.220339 L69.4576271,28.220339 C69.2542373,29.1355932 69,30.2033898 68.8474576,31.220339 C68.7457627,31.9322034 68.6440678,32.6949153 68.5932203,33.3050847 C68.5423729,34.0169492 68.4915254,34.779661 68.440678,35.4915254 L68.3898305,36.2033898 C68.3898305,36.4067797 68.3389831,36.6610169 68.3389831,36.8644068 L68.3389831,37.0677966 L68.3389831,37.4237288 C68.3389831,37.6779661 68.1864407,37.8305085 67.9322034,37.8305085 L66.8135593,37.8305085 C66.559322,37.8305085 66.4067797,37.6779661 66.4067797,37.4237288 L66.4067797,37.3220339 L66.4067797,37.220339 C66.4067797,36.9152542 66.3559322,36.6101695 66.3559322,36.3050847 L66.3559322,36.2033898 C66.3050847,35.440678 66.2542373,34.779661 66.2033898,34.1186441 C66.0508475,32.440678 65.8474576,30.9661017 65.5423729,29.6440678 C65.4915254,29.440678 65.440678,29.1864407 65.3898305,28.9830508 L65.3898305,28.9322034 C65.2881356,28.4745763 65.1864407,28.0677966 65.0847458,27.6610169 C64.9322034,27.1525424 64.779661,26.6949153 64.6271186,26.3389831 C64.4237288,25.9322034 64.2711864,25.6271186 64.0169492,25.4237288 C63.7627119,25.1186441 63.4576271,24.9661017 63.1525424,24.8644068 C62.7457627,24.7627119 62.440678,24.8644068 62.1864407,25.1694915 C61.8813559,25.4745763 61.7288136,25.8305085 61.7288136,26.2881356 C61.7288136,26.7457627 61.779661,27.2033898 61.9322034,27.7627119 C61.9830508,27.9661017 62.0338983,28.1186441 62.0847458,28.3220339 L62.1864407,28.6779661 L62.1355932,28.779661 C62.0847458,28.9322034 61.9322034,29.0338983 61.779661,29.0338983 L61.220339,29.0338983 L60.7118644,29.0338983 C60.5084746,29.0338983 60.3050847,28.9322034 60.2542373,28.7288136 C60.0508475,28.220339 59.8474576,27.7118644 59.7457627,27.1016949 C59.6949153,26.6440678 59.6949153,26.1864407 59.7457627,25.7288136 C59.7966102,25.4237288 59.8474576,25.1186441 59.9491525,24.8135593 C60.3050847,23.6949153 61.1186441,22.9830508 62.2881356,22.7288136 C62.440678,22.6779661 62.5932203,22.6779661 62.7966102,22.6779661 C63,22.6779661 63.2033898,22.6779661 63.3050847,22.7288136 C63.7627119,22.779661 64.220339,22.9830508 64.7288136,23.2881356 C65.440678,23.7966102 66,24.4067797 66.4067797,25.3220339 C66.6610169,25.8305085 66.8135593,26.3898305 66.9661017,26.9491525 C67.1186441,27.6101695 67.2711864,28.2711864 67.4237288,28.9322034 L67.4237288,29.0338983 C67.4237288,28.9322034 67.4745763,28.8305085 67.4745763,28.7288136 L67.4237288,28.4237288 Z" id="Shape"></path>
                <path d="M81.8644068,35.8983051 C81.4576271,36.559322 81.3559322,37.4237288 81.559322,38.2372881 C81.7627119,39 82.2711864,39.7118644 82.9830508,40.1186441 C83.4915254,40.4237288 84.0508475,40.5762712 84.6101695,40.5254237 C85.6779661,40.4745763 86.6440678,39.9152542 87.1525424,39 C88.0677966,37.3728814 87.3050847,35.5423729 86.0338983,34.8305085 C85.5762712,34.5762712 85.0169492,34.4237288 84.5084746,34.4237288 L84.4067797,34.4237288 C83.3389831,34.4237288 82.3728814,34.9830508 81.8644068,35.8983051 Z" id="Shape"></path>
                <path d="M74.7457627,42.8644068 C78.4576271,43.9830508 81.9152542,46.0169492 84.7627119,48.6610169 L101.338983,32.0847458 C95.5932203,26.4915254 88.4745763,22.4237288 80.7966102,20.2372881 L74.7457627,42.8644068 Z M82.3728814,26.2881356 C82.4237288,26.2372881 82.4237288,26.1864407 82.4237288,26.1355932 C82.5762712,25.8305085 82.779661,25.5762712 82.9322034,25.2711864 C82.9830508,25.1694915 83.0847458,25.0169492 83.3389831,25.0169492 L83.3389831,25.0169492 C83.440678,25.0169492 83.5423729,25.0677966 83.5932203,25.0677966 C83.7457627,25.1186441 83.8983051,25.220339 84,25.2711864 C84.3050847,25.4745763 84.559322,25.6779661 84.7627119,25.8813559 C85.1186441,26.2372881 85.3220339,26.6949153 85.4237288,27.2542373 C85.4745763,27.6101695 85.5254237,27.9661017 85.5254237,28.3728814 C85.5254237,28.7288136 85.4745763,29.0847458 85.4745763,29.4915254 L85.4237288,29.8474576 C85.4237288,30.0508475 85.3728814,30.2033898 85.3728814,30.4067797 C85.3728814,30.8644068 85.4237288,31.2711864 85.5254237,31.6271186 C85.5762712,31.779661 85.6779661,31.9322034 85.779661,32.1355932 C85.8813559,32.2881356 85.9830508,32.3898305 86.1355932,32.440678 C86.7966102,32.6440678 87.4067797,33 87.9152542,33.5084746 C87.9661017,33.559322 87.9661017,33.559322 88.0169492,33.559322 C88.4237288,33.6101695 88.8305085,33.559322 89.2881356,33.4067797 C89.5932203,33.3050847 89.8983051,33.1525424 90.2542373,32.8983051 L90.5084746,32.6949153 C90.7627119,32.5423729 91.0169492,32.3389831 91.2711864,32.1864407 C91.5762712,31.9830508 91.8305085,31.8305085 92.1355932,31.6779661 C92.4915254,31.5254237 92.7966102,31.4237288 93.1525424,31.3728814 C93.7118644,31.2711864 94.2711864,31.3220339 94.779661,31.5762712 C94.9322034,31.6779661 95.1864407,31.7288136 95.3389831,31.8813559 C95.4915254,31.9830508 95.5932203,32.0338983 95.6949153,32.1864407 L95.8983051,32.3898305 L95.0338983,33.8644068 L94.8305085,33.8644068 C94.6271186,33.8644068 94.5254237,33.7627119 94.4237288,33.7118644 L94.3728814,33.7118644 C94.1694915,33.6101695 94.0169492,33.5084746 93.8135593,33.4576271 C93.559322,33.4067797 93.3050847,33.4067797 93.0508475,33.5084746 C92.8474576,33.6101695 92.6440678,33.7118644 92.440678,33.8644068 C92.2881356,33.9661017 92.1355932,34.0677966 92.0338983,34.1694915 C91.4237288,34.6779661 90.6610169,35.0338983 89.7966102,35.3389831 C89.6440678,35.3898305 89.440678,35.440678 89.2372881,35.4915254 L89.1355932,35.4915254 C89.5932203,36.7627119 89.5932203,37.9830508 89.0847458,39.2033898 C88.3220339,41.1355932 86.5423729,42.4067797 84.4576271,42.4576271 L84.3050847,42.4576271 C83.9491525,42.4576271 83.5932203,42.4067797 83.2881356,42.3559322 C81.8135593,42.0508475 80.5932203,41.1864407 79.8305085,39.9152542 C79.0677966,38.6440678 78.9152542,37.1186441 79.3728814,35.6949153 C80.1355932,33.7118644 81.5084746,32.5932203 83.5423729,32.2372881 C83.440678,31.9322034 83.3389831,31.6271186 83.2881356,31.2711864 C83.1864407,30.4067797 83.1355932,29.6440678 83.2881356,28.9830508 C83.3389831,28.7288136 83.3389831,28.4745763 83.3389831,28.1186441 C83.3389831,27.559322 83.0847458,27.1525424 82.5254237,26.8474576 L82.4745763,26.8474576 C82.3728814,26.7966102 82.2711864,26.7457627 82.1694915,26.6440678 L82.0169492,26.4915254 L82.3728814,26.2881356 Z" id="Shape"></path>
                <path d="M48.6610169,84.7627119 C46.0169492,81.9152542 43.9830508,78.4576271 42.8644068,74.7457627 L20.1864407,80.8474576 C22.3728814,88.5254237 26.4915254,95.6440678 32.0338983,101.389831 L48.6610169,84.7627119 Z M30.4576271,89.440678 C30.1525424,89.5932203 29.8474576,89.7966102 29.5423729,89.9491525 C29.440678,90 29.3898305,90.0508475 29.2372881,90.0508475 C29.0338983,90.0508475 28.9322034,89.8474576 28.8305085,89.7966102 C28.779661,89.6949153 28.7288136,89.5932203 28.6779661,89.5423729 L28.5762712,89.3389831 C28.5254237,89.2372881 28.4745763,89.1355932 28.3728814,88.9830508 C28.220339,88.7288136 28.1186441,88.5254237 27.9661017,88.2711864 L27.9152542,88.1694915 C27.6101695,87.6610169 27.3559322,87.2033898 27.0508475,86.6949153 C26.6949153,86.0847458 26.3389831,85.4237288 25.9830508,84.8135593 L25.6779661,84.3050847 C25.6271186,84.2033898 25.5762712,84.1016949 25.5254237,84 C25.4237288,83.7966102 25.4745763,83.5932203 25.6779661,83.440678 C25.779661,83.3898305 25.8305085,83.3389831 25.9322034,83.2881356 L26.4915254,82.9322034 C28.0169492,82.0169492 29.5932203,81.1016949 31.1186441,80.1864407 L31.1694915,80.1355932 C31.2711864,80.0847458 31.4237288,79.9830508 31.5762712,79.9322034 L31.6779661,79.8813559 L31.779661,79.9322034 C31.9830508,80.0338983 32.0338983,80.1864407 32.1355932,80.3389831 C32.1355932,80.3898305 32.1864407,80.3898305 32.1864407,80.440678 C32.3389831,80.6440678 32.440678,80.8474576 32.5423729,81.0508475 C32.6949153,81.3050847 32.6440678,81.5084746 32.3898305,81.6610169 C32.1864407,81.8135593 31.9322034,81.9152542 31.7288136,82.0677966 L29.2372881,83.5423729 C29.8474576,83.6949153 30.4067797,83.8474576 31.0169492,84 L34.8813559,84.9661017 C35.1355932,85.0169492 35.3389831,85.0677966 35.5932203,85.1694915 L36.5084746,81.6610169 L36.7118644,81.6101695 L36.8135593,81.6101695 L36.8644068,81.6101695 C37.2711864,81.7118644 37.6271186,81.8135593 37.9830508,81.9152542 C38.2372881,81.9661017 38.3898305,82.1694915 38.2881356,82.4745763 C38.1355932,83.0847458 37.9830508,83.7457627 37.779661,84.3559322 L37.4237288,85.6271186 L37.4745763,85.6271186 L39.6610169,86.1864407 C40.5762712,86.3898305 41.440678,86.6440678 42.3559322,86.8474576 L42.5084746,86.8983051 C42.6610169,86.9491525 42.8135593,86.9491525 42.9152542,87.1016949 C43.0169492,87.2542373 42.9661017,87.4067797 42.9152542,87.559322 L42.8644068,87.7118644 C42.8135593,87.8644068 42.8135593,87.9661017 42.7627119,88.1186441 L42.7627119,88.220339 C42.7627119,88.3220339 42.7118644,88.4237288 42.7118644,88.4745763 C42.6610169,88.6271186 42.6101695,88.8813559 42.3050847,88.8813559 L42.1525424,88.8813559 L41.2881356,88.6779661 L38.440678,87.9661017 C38.1355932,87.8644068 37.779661,87.8135593 37.4745763,87.7118644 L37.0677966,87.6101695 C36.9661017,87.9152542 36.9152542,88.220339 36.8135593,88.5254237 L36.3050847,90.559322 C36.3050847,90.6101695 36.3050847,90.6610169 36.2542373,90.6610169 L36.2033898,90.8135593 L36.1525424,90.8644068 C36.0508475,90.9152542 36,90.9661017 35.8983051,90.9661017 L35.7457627,90.9661017 L35.6440678,90.9661017 C35.2881356,90.8644068 34.9830508,90.8135593 34.6779661,90.7118644 C34.4237288,90.6610169 34.3220339,90.4576271 34.3728814,90.1525424 C34.4745763,89.8474576 34.5254237,89.4915254 34.6271186,89.1864407 L35.1355932,87.1525424 C34.220339,86.8983051 33.2542373,86.6949153 32.3389831,86.440678 L28.7288136,85.5254237 L29.1864407,86.3389831 C29.3898305,86.7457627 29.6440678,87.1016949 29.8474576,87.5084746 C30.0508475,87.9152542 30.3050847,88.2711864 30.5084746,88.6779661 L30.6101695,88.8813559 C30.8135593,89.0847458 30.7118644,89.2881356 30.4576271,89.440678 Z" id="Shape"></path>
                <path d="M55.4745763,114.864407 C63.2033898,116.79661 71.440678,116.79661 79.220339,114.864407 L73.1186441,92.1864407 C69.3050847,93.0508475 65.3389831,93.0508475 61.5254237,92.1864407 L55.4745763,114.864407 Z M73.8305085,103.525424 L73.8305085,103.627119 C73.8813559,103.983051 73.9830508,104.389831 74.0338983,104.745763 C74.0338983,104.847458 74.0847458,104.949153 73.9830508,105.050847 C73.8813559,105.152542 73.779661,105.152542 73.7288136,105.152542 L72.6610169,105.152542 L72.1525424,105.152542 L70.9830508,105.152542 C71.2372881,105.40678 71.4915254,105.661017 71.6949153,105.966102 C72.0508475,106.423729 72.3050847,107.135593 72.4067797,107.847458 C72.5084746,108.610169 72.3559322,109.322034 72,109.983051 C71.5932203,110.644068 70.9322034,111.152542 70.1186441,111.508475 C69.2542373,111.864407 68.2881356,112.067797 67.3220339,112.067797 C67.0677966,112.067797 66.8135593,112.067797 66.5084746,112.016949 C65.6440678,111.915254 64.8813559,111.711864 64.1694915,111.355932 C63.4576271,111 62.9491525,110.491525 62.5932203,109.932203 C62.1864407,109.271186 62.0847458,108.508475 62.2372881,107.745763 C62.3389831,107.135593 62.6440678,106.525424 62.9491525,106.118644 C63.1525424,105.813559 63.4067797,105.559322 63.6610169,105.305085 L62.1864407,105.305085 L61.1186441,105.305085 L61.0677966,105.20339 L61.0677966,105.20339 L61.0677966,105.305085 L61.0169492,105.305085 L60.9661017,105.305085 L60.9661017,105.305085 C60.9152542,105.305085 60.7627119,105.305085 60.7118644,105.20339 C60.6101695,105.101695 60.6610169,105 60.6610169,104.898305 L60.6610169,104.847458 L60.9152542,103.627119 C60.9661017,103.372881 61.0169492,103.220339 61.220339,103.322034 C61.3728814,103.423729 61.5762712,103.322034 61.779661,103.322034 C63.0508475,103.322034 64.2711864,103.271186 65.5423729,103.271186 L65.6949153,103.271186 L65.7966102,103.271186 L65.8983051,103.271186 L66,103.372881 C66.0508475,103.474576 66.0508475,103.576271 66.0508475,103.677966 L66.0508475,103.728814 C66.0508475,103.983051 66.0508475,104.186441 66,104.440678 L66,104.644068 C66,104.847458 66,105.101695 65.9491525,105.305085 C65.9491525,105.508475 65.8474576,105.610169 65.6949153,105.711864 C65.5423729,105.813559 65.3898305,105.915254 65.2372881,106.016949 C64.9322034,106.271186 64.7288136,106.525424 64.5762712,106.830508 C64.220339,107.440678 64.1694915,108.050847 64.4237288,108.661017 C64.6271186,109.067797 64.8813559,109.372881 65.3389831,109.627119 C65.7966102,109.881356 66.3559322,110.033898 66.9661017,110.084746 C67.6779661,110.135593 68.3389831,110.033898 68.9491525,109.779661 C69.3559322,109.576271 69.7118644,109.372881 70.0169492,109.016949 C70.3220339,108.610169 70.4745763,108.20339 70.4745763,107.745763 C70.4745763,107.288136 70.3220339,106.881356 70.0169492,106.525424 C69.8135593,106.271186 69.5084746,106.016949 69.2033898,105.813559 C69.1525424,105.762712 69.1016949,105.762712 69.0508475,105.711864 L68.8474576,105.610169 L68.8474576,105.508475 C68.7966102,105.152542 68.7457627,103.576271 68.7457627,103.372881 L68.7457627,103.220339 L69.0508475,103.220339 L69.4576271,103.220339 C70.779661,103.220339 72.0508475,103.220339 73.3728814,103.169492 L73.5254237,103.169492 C73.7288136,103.118644 73.779661,103.322034 73.8305085,103.525424 Z M61.779661,99.8644068 L61.9322034,99.8644068 C62.6949153,99.8644068 63.4067797,99.8644068 64.0169492,99.8135593 L64.220339,99.8135593 L65.1355932,99.8135593 L65.1864407,99.8135593 C65.440678,99.7627119 66,99.7627119 67.5762712,99.7627119 L70.8305085,99.7627119 L71.6949153,99.7627119 L71.7966102,99.7627119 L72.6610169,99.7627119 L72.8135593,99.7627119 C73.1186441,99.7627119 73.1694915,99.9661017 73.1694915,100.169492 L73.3728814,101.288136 C73.4237288,101.491525 73.4237288,101.59322 73.3220339,101.694915 C73.220339,101.79661 73.1186441,101.79661 73.0677966,101.79661 L72.9152542,101.79661 L71.6440678,101.79661 L70.0677966,101.79661 L68.440678,101.79661 L67.4745763,101.79661 L66.6101695,101.79661 C66,101.79661 65.440678,101.79661 64.8305085,101.847458 L63.3050847,101.847458 L62.1355932,101.847458 L61.5254237,101.847458 L61.4745763,101.847458 C61.4237288,101.847458 61.3220339,101.847458 61.2711864,101.745763 C61.220339,101.644068 61.220339,101.542373 61.220339,101.491525 C61.2711864,101.135593 61.3728814,100.830508 61.4237288,100.474576 C61.4237288,100.372881 61.4745763,100.271186 61.4745763,100.169492 L61.4745763,100.118644 C61.5762712,99.9661017 61.6779661,99.9152542 61.779661,99.8644068 Z" id="Shape"></path>
                <path d="M83.7457627,102.915254 C83.7457627,102.813559 83.6440678,102.457627 83.5423729,102.355932 C83.2881356,101.898305 83.0338983,101.440678 82.779661,100.983051 L82.4237288,100.372881 C82.2711864,100.067797 82.1186441,99.8135593 81.9661017,99.5084746 L81.9152542,99.4576271 C81.7627119,99.2033898 81.6101695,98.8983051 81.4576271,98.6440678 C81.3559322,99.0508475 81.3559322,99.3559322 81.4067797,99.8135593 C81.5084746,101.440678 82.0169492,102.813559 82.9322034,103.983051 C83.0847458,104.135593 83.1864407,104.288136 83.2881356,104.440678 C83.3389831,104.491525 83.440678,104.542373 83.4915254,104.59322 C83.5423729,104.59322 83.5932203,104.644068 83.6440678,104.542373 C83.6949153,104.491525 83.7457627,104.389831 83.7457627,104.288136 C83.7966102,104.135593 83.7966102,103.932203 83.7966102,103.728814 C83.7966102,103.474576 83.7966102,103.423729 83.7457627,103.271186 C83.7966102,103.169492 83.7457627,103.067797 83.7457627,102.915254 Z" id="Shape"></path>
                <path d="M84.7627119,85.9830508 C81.9152542,88.6271186 78.4576271,90.6610169 74.7457627,91.779661 L80.8474576,114.457627 C88.5254237,112.271186 95.6440678,108.152542 101.389831,102.559322 L84.7627119,85.9830508 Z M94.8305085,104.033898 C94.4237288,104.186441 94.0169492,104.186441 93.6610169,104.033898 C93.4067797,103.932203 93.2033898,103.830508 92.9491525,103.627119 C92.8983051,103.576271 92.8474576,103.525424 92.7966102,103.474576 C92.7966102,103.677966 92.8474576,103.932203 92.7966102,104.135593 C92.7966102,104.491525 92.7457627,104.79661 92.6440678,105.050847 C92.5423729,105.305085 92.3898305,105.559322 92.2372881,105.711864 C91.9830508,105.966102 91.6271186,106.118644 91.220339,106.118644 L91.1694915,106.118644 C90.9152542,106.118644 90.7118644,106.067797 90.4576271,105.966102 C90.2033898,105.864407 90,105.711864 89.7966102,105.559322 C89.7966102,106.016949 89.7457627,106.525424 89.5932203,106.983051 C89.4915254,107.186441 89.440678,107.389831 89.2881356,107.542373 C89.0338983,107.898305 88.6271186,108.050847 88.220339,108.050847 L88.220339,108.050847 C87.7118644,108.050847 87.2542373,107.847458 86.8983051,107.542373 C86.7457627,107.389831 86.5932203,107.237288 86.4915254,107.033898 C86.1864407,106.576271 85.8813559,106.067797 85.6271186,105.559322 C85.6271186,105.508475 85.5762712,105.457627 85.5762712,105.40678 C85.5254237,105.610169 85.4745763,105.813559 85.4237288,106.016949 C85.2711864,106.322034 85.0169492,106.728814 84.6101695,106.830508 C84.4576271,106.881356 84.3050847,106.881356 84.1525424,106.881356 C83.8983051,106.881356 83.6440678,106.830508 83.440678,106.779661 C83.1355932,106.677966 82.8305085,106.474576 82.5254237,106.169492 C81.8135593,105.508475 81.2033898,104.694915 80.7966102,103.728814 C80.2881356,102.508475 79.9322034,101.237288 79.8305085,99.9152542 C79.779661,99.5084746 79.8305085,98.8983051 79.8305085,98.440678 C79.9322034,97.6271186 80.0847458,97.1694915 80.2881356,96.6101695 L80.2881356,96.559322 C80.0847458,96.2542373 79.8305085,96.1016949 79.5254237,96.0508475 C79.3728814,96.0508475 79.2711864,96.0508475 79.1694915,96.1016949 L79.0677966,96.1016949 C79.0169492,96.1016949 78.8644068,96.1016949 78.7627119,95.8983051 L78.2033898,94.8305085 C78.1525424,94.7288136 78.1525424,94.6271186 78.1525424,94.5254237 C78.2033898,94.4237288 78.2542373,94.3728814 78.3559322,94.3220339 C79.220339,93.9661017 80.0847458,94.0677966 80.8474576,94.6271186 C80.9491525,94.7288136 81.0508475,94.8305085 81.1525424,94.8813559 C81.4067797,94.1186441 81.9661017,93.7118644 82.8305085,93.6101695 C83.0338983,93.559322 83.1864407,93.6610169 83.3389831,93.8644068 C83.4915254,94.1186441 83.6440678,94.3220339 83.7966102,94.5762712 L84,94.9322034 L83.9491525,95.0338983 C83.8983051,95.1864407 83.7966102,95.2881356 83.6440678,95.2881356 L83.5423729,95.2881356 C83.440678,95.3389831 83.3389831,95.3389831 83.1864407,95.3898305 C83.0847458,95.440678 82.9830508,95.4915254 82.8813559,95.5423729 C82.6271186,95.7457627 82.5762712,96 82.6779661,96.4067797 C82.7288136,96.559322 82.8305085,96.7627119 82.9322034,96.9661017 C83.2372881,97.3728814 83.4915254,97.8305085 83.6949153,98.2372881 L83.7457627,98.2881356 C83.8474576,98.440678 83.8983051,98.5423729 84,98.6949153 C84.559322,99.6101695 85.0677966,100.525424 85.6271186,101.440678 L86.9491525,103.677966 C87.1525424,103.983051 87.3559322,104.338983 87.5084746,104.644068 L88.0677966,105.610169 C88.1694915,105.152542 88.1694915,104.694915 88.0677966,104.186441 C87.9661017,103.728814 87.8135593,103.271186 87.6101695,102.711864 C87.3050847,102.101695 86.9491525,101.491525 86.6440678,100.932203 L86.5423729,100.728814 C86.0338983,99.8644068 85.5254237,99 85.0169492,98.1355932 L84.4067797,97.0677966 C84.2542373,96.8135593 84.1016949,96.559322 84,96.3559322 L83.8474576,96.0508475 C83.6949153,95.8474576 83.7457627,95.6440678 83.9491525,95.4915254 C84.2542373,95.2881356 84.6101695,95.0338983 84.9152542,94.8305085 L84.9661017,94.779661 C85.1694915,94.6779661 85.3728814,94.7288136 85.4745763,94.8813559 C85.6271186,95.1355932 85.8305085,95.3898305 85.9830508,95.6440678 L91.1186441,103.677966 C91.1186441,103.627119 91.1694915,103.576271 91.1694915,103.474576 C91.2711864,102.864407 91.220339,102.254237 90.9661017,101.644068 C90.8135593,101.186441 90.559322,100.677966 90.2033898,100.067797 C89.5932203,99 88.8813559,97.9830508 88.220339,96.9661017 L87.9661017,96.6101695 C87.6610169,96.1525424 87.3050847,95.6440678 87,95.1864407 L86.5423729,94.4745763 C86.4915254,94.4237288 86.440678,94.3728814 86.440678,94.2711864 C86.3898305,94.1694915 86.2372881,93.9152542 86.5423729,93.7118644 C86.8983051,93.5084746 87.2033898,93.3050847 87.559322,93.1016949 C87.6101695,93.0508475 87.7118644,93 87.7627119,93 C87.9152542,93 88.0169492,93.1016949 88.0677966,93.2033898 C88.1186441,93.2542373 88.1694915,93.3050847 88.1694915,93.3559322 L88.220339,93.4067797 C90.0508475,96 91.8813559,98.6440678 93.7118644,101.237288 C93.8135593,101.389831 93.9661017,101.59322 94.1186441,101.694915 C94.1694915,101.745763 94.2711864,101.79661 94.3220339,101.847458 C94.4237288,101.898305 94.5254237,101.898305 94.6271186,101.847458 C94.6779661,101.79661 94.779661,101.745763 94.8813559,101.694915 L94.9322034,101.694915 L94.9830508,101.694915 L94.9830508,101.694915 L95.0338983,101.694915 L95.1355932,101.745763 L95.1355932,101.745763 L95.1864407,101.79661 L95.1864407,101.847458 C95.3389831,102.101695 95.5423729,102.305085 95.6949153,102.559322 C95.8474576,102.813559 95.7966102,102.966102 95.6440678,103.118644 C95.3389831,103.779661 95.1355932,103.932203 94.8305085,104.033898 Z" id="Shape"></path>
                <path d="M100.983051,80.8474576 C100.728814,80.6949153 100.474576,80.6440678 100.220339,80.6440678 C99.6101695,80.6440678 99.1016949,80.9491525 98.8474576,81.4576271 C98.6440678,81.8135593 98.5932203,82.2711864 98.6949153,82.6779661 C98.7966102,83.0847458 99.1016949,83.440678 99.4576271,83.6440678 C99.7118644,83.7966102 99.9661017,83.8474576 100.271186,83.8474576 L100.271186,83.8474576 C100.830508,83.8474576 101.338983,83.5423729 101.644068,83.0338983 C102.101695,82.0677966 101.542373,81.2033898 100.983051,80.8474576 Z" id="Shape"></path>
                <path d="M114.457627,80.8474576 L91.779661,74.7457627 C90.6610169,78.4576271 88.6271186,81.9152542 85.9830508,84.7627119 L102.559322,101.338983 C108.152542,95.5932203 112.220339,88.5254237 114.457627,80.8474576 Z M100.728814,92.440678 C100.067797,91.9830508 99.4576271,91.4237288 98.7966102,90.6610169 C98.0338983,89.7966102 97.4745763,89.0847458 96.9661017,88.3220339 C96.559322,87.7627119 96.2542373,87.2542373 95.8474576,86.7966102 C95.4915254,86.3898305 95.1864407,86.0847458 94.8813559,85.8813559 C94.4237288,85.5762712 93.9661017,85.5254237 93.5084746,85.6779661 C93.1525424,85.779661 92.9491525,86.0338983 92.7966102,86.3389831 C92.6949153,86.5932203 92.6440678,86.8983051 92.6440678,87.2542373 L92.6440678,87.8135593 L92.6440678,88.220339 L92.6440678,88.220339 C92.6440678,88.3220339 92.6440678,88.4745763 92.4915254,88.6779661 L92.3389831,88.8813559 L92.1355932,88.779661 C92.0847458,88.7288136 92.0338983,88.7288136 91.9830508,88.7288136 L91.6271186,88.5254237 C91.3728814,88.3728814 91.1694915,88.2711864 90.9152542,88.1186441 C90.6610169,88.0169492 90.559322,87.7627119 90.559322,87.5084746 L90.559322,87.4576271 L90.559322,87.3050847 C90.559322,87 90.6101695,86.5423729 90.7118644,86.0338983 C90.9152542,85.0677966 91.3728814,84.3559322 92.1355932,83.8474576 C93.0508475,83.2881356 94.0677966,83.1355932 95.0847458,83.440678 C95.7457627,83.6440678 96.3559322,84.0508475 96.9661017,84.6610169 C97.5254237,85.220339 97.9830508,85.8813559 98.3898305,86.440678 L98.7457627,86.9491525 C99,87.3559322 99.3050847,87.7627119 99.6101695,88.1186441 C100.271186,88.9322034 100.830508,89.5423729 101.440678,90.1016949 C101.79661,90.4067797 102.20339,90.6610169 102.661017,90.8644068 C102.915254,90.9661017 103.169492,91.0677966 103.423729,91.0677966 C103.830508,91.1186441 104.186441,91.0169492 104.542373,90.7627119 C105,90.4067797 105.355932,90 105.508475,89.5423729 C105.711864,88.8813559 105.559322,88.220339 105.050847,87.6610169 C104.847458,87.4576271 104.644068,87.2542373 104.338983,87.1016949 C103.728814,86.7457627 103.016949,86.440678 102.152542,86.2372881 C101.847458,86.1864407 101.59322,86.1355932 101.288136,86.0847458 L101.237288,86.0847458 C101.084746,86.0338983 100.932203,86.0338983 100.779661,85.9830508 C100.271186,85.8813559 99.8644068,85.779661 99.4576271,85.6271186 C99.3050847,85.5762712 99.1525424,85.5254237 99.0508475,85.4237288 L99,85.3728814 C98.9491525,85.3728814 98.9491525,85.3220339 98.8983051,85.3220339 C97.7288136,84.7118644 97.0677966,83.7457627 96.9661017,82.4745763 C96.9152542,81.5084746 97.220339,80.6440678 97.8305085,79.9322034 C98.4915254,79.220339 99.4067797,78.8644068 100.372881,78.8644068 C100.728814,78.8644068 101.084746,78.9152542 101.389831,79.0169492 C102.254237,79.2711864 102.966102,79.9322034 103.372881,80.7457627 C103.779661,81.559322 103.830508,82.5254237 103.525424,83.3898305 C103.423729,83.7457627 103.220339,84.0508475 102.966102,84.3559322 C103.728814,84.5084746 104.389831,84.7118644 104.949153,84.9661017 C105.813559,85.3220339 106.423729,85.779661 106.881356,86.3898305 C107.186441,86.7457627 107.389831,87.1525424 107.491525,87.559322 C107.79661,88.5762712 107.79661,89.5423729 107.440678,90.4576271 C107.033898,91.6271186 106.271186,92.440678 105.152542,92.8983051 C104.59322,93.1525424 103.983051,93.2542373 103.423729,93.2542373 C103.016949,93.2542373 102.559322,93.2033898 102.152542,93.0508475 C101.644068,93 101.186441,92.7457627 100.728814,92.440678 Z" id="Shape"></path>
                <polygon id="Shape" points="27.9661017 52.0677966 27.9661017 52.0169492 27.9661017 52.0169492"></polygon>
                <rect id="Rectangle-path" x="66.1016949" y="0.457627119" width="2.44067797" height="13.5254237"></rect>
            </g>
        </g>
    </g>
</svg>