<?xml version="1.0" encoding="UTF-8" standalone="no"?>
<svg width="6px" height="6px" viewBox="0 0 6 6" version="1.1" xmlns="http://www.w3.org/2000/svg" xmlns:xlink="http://www.w3.org/1999/xlink">
    <!-- Generator: Sketch 39.1 (31720) - http://www.bohemiancoding.com/sketch -->
    <title>suit-clubs</title>
    <desc>Created with Sketch.</desc>
    <defs></defs>
    <g id="Index" stroke="none" stroke-width="1" fill="none" fill-rule="evenodd">
        <g id="Canvas:-1248px,-Viewport:-960px-+-48px-Gutters" transform="translate(-325.000000, -584.000000)" fill="#292C36">
            <g id="Main-Content" transform="translate(-5.000000, 185.000000)">
                <g id="Schedule-Cards" transform="translate(149.000000, 355.000000)">
                    <g id="Card" transform="translate(175.000000, 0.000000)">
                        <path d="M8.93306692,47.8507231 C8.71819735,48.4123504 8.17013402,48.8118812 7.54455446,48.8118812 C6.67830058,48.8118812 6,48.1468768 6,47.3267327 C6,46.5064689 6.67830058,45.8415842 7.54455446,45.8415842 C7.55925483,45.8415842 7.57391241,45.8418047 7.58852386,45.8422428 C7.55983015,45.7278607 7.54455446,45.6082554 7.54455446,45.4851485 C7.54455446,44.6651374 8.2228089,44 9.02970297,44 C9.89600298,44 10.5742574,44.6651374 10.5742574,45.4851485 C10.5742574,45.5876863 10.5636599,45.6877949 10.5434223,45.7844795 C11.3672055,45.8277288 12,46.4751598 12,47.2673267 C12,48.0875307 11.3217189,48.7524752 10.4554455,48.7524752 C9.87623091,48.7524752 9.36343351,48.4099693 9.12006576,47.913377 C9.35506426,49.6593585 10.8118812,50 10.8118812,50 L7.24752475,50 C8.69485961,49.6125606 8.92054315,48.4399662 8.93306692,47.8507231 Z M9.00060241,46.9700085 C8.99564334,46.9699102 8.99068942,46.9697867 8.98574078,46.9696383 C8.98861662,46.9811042 8.99135766,46.9926225 8.99396201,47.0041916 C8.99604314,46.9927513 8.99825718,46.9813564 9.00060241,46.9700085 Z" id="suit-clubs"></path>
                    </g>
                </g>
            </g>
        </g>
    </g>
</svg>