<?xml version="1.0" encoding="UTF-8" standalone="no"?>
<svg width="6px" height="6px" viewBox="0 0 6 6" version="1.1" xmlns="http://www.w3.org/2000/svg" xmlns:xlink="http://www.w3.org/1999/xlink">
    <!-- Generator: Sketch 39.1 (31720) - http://www.bohemiancoding.com/sketch -->
    <title>suit-spades</title>
    <desc>Created with Sketch.</desc>
    <defs></defs>
    <g id="Index" stroke="none" stroke-width="1" fill="none" fill-rule="evenodd">
        <g id="Canvas:-1248px,-Viewport:-960px-+-48px-Gutters" transform="translate(-208.000000, -583.000000)" fill="#292C36">
            <g id="Main-Content" transform="translate(-5.000000, 185.000000)">
                <g id="Schedule-Cards" transform="translate(149.000000, 355.000000)">
                    <g id="Card" transform="translate(58.000000, 0.000000)">
                        <path d="M8.97906127,46.4654073 C8.91877715,46.7423785 9.02754557,48.5012369 7,49 L11,49 C11,49 9.11580373,48.5953701 9,46.4285714 C9.73997896,47.7763292 11.9863893,47.5029114 12,45.5714286 C12.0088091,44.8266889 10.9357877,44.5526654 10,43.8571429 C9.61067416,43.7830975 9.0681675,43.2094049 9,43 C8.92687071,43.2136455 8.43989213,43.7730008 8,43.8571429 C7.05090823,44.5189425 5.99196443,44.8163903 6,45.5714286 C6.01348209,47.4716542 8.18288585,47.8290514 8.97906127,46.4654073 Z" id="suit-spades"></path>
                    </g>
                </g>
            </g>
        </g>
    </g>
</svg>