<?xml version="1.0" encoding="UTF-8" standalone="no"?>
<svg width="469px" height="241px" viewBox="0 0 469 241" version="1.1" xmlns="http://www.w3.org/2000/svg" xmlns:xlink="http://www.w3.org/1999/xlink">
    <!-- Generator: Sketch 39 (31667) - http://www.bohemiancoding.com/sketch -->
    <title>welcome</title>
    <desc>Created with Sketch.</desc>
    <defs></defs>
    <g id="Index" stroke="none" stroke-width="1" fill="none" fill-rule="evenodd">
        <g id="Canvas:-1248px,-Viewport:-960px-+-48px-Gutters" transform="translate(-143.000000, -185.000000)">
            <g id="Main-Content" transform="translate(-5.000000, 185.000000)">
                <g id="welcome" transform="translate(148.000000, 0.000000)">
                    <path d="M468.8,221.336 L468.8,212.048 L460.808,212.048 L460.808,222.2 L464.552,222.2 C464.552,225.584 462.896,226.952 460.808,226.952 L460.808,229.112 C465.632,229.112 468.8,225.656 468.8,221.336 L468.8,221.336 Z M458.936,221.336 L458.936,212.048 L450.872,212.048 L450.872,222.2 L454.616,222.2 C454.616,225.584 453.032,226.952 450.872,226.952 L450.872,229.112 C455.768,229.112 458.936,225.656 458.936,221.336 L458.936,221.336 Z" id="Close-Curly-Double-Quote" fill="#FFFCFA"></path>
                    <path d="M18.304,233.322 L18.304,218.706 C18.304,214.38 14.776,211.44 10.24,211.44 C5.662,211.44 2.134,214.38 2.134,218.706 L2.134,233.322 C2.134,237.69 5.662,240.63 10.24,240.63 C14.776,240.63 18.304,237.69 18.304,233.322 L18.304,233.322 Z M11.71,233.7 C11.71,234.582 11.038,235.086 10.24,235.086 C9.442,235.086 8.728,234.582 8.728,233.7 L8.728,218.328 C8.728,217.446 9.442,216.942 10.24,216.942 C11.038,216.942 11.71,217.446 11.71,218.328 L11.71,233.7 Z M36.406,233.7 L36.406,212.028 L30.19,212.028 L30.19,233.7 C30.19,234.582 29.518,235.086 28.678,235.086 C27.922,235.086 27.25,234.582 27.25,233.7 L27.25,212.028 L20.74,212.028 L20.74,233.7 C20.74,237.564 24.184,240.63 28.678,240.63 C33.256,240.63 36.406,237.564 36.406,233.7 L36.406,233.7 Z M53.626,217.572 L53.626,212.028 L38.044,212.028 L38.044,217.572 L42.58,217.572 L42.58,240 L49.048,240 L49.048,217.572 L53.626,217.572 Z M77.314,233.322 L77.314,218.706 C77.314,214.38 73.786,211.44 69.25,211.44 C64.672,211.44 61.144,214.38 61.144,218.706 L61.144,233.322 C61.144,237.69 64.672,240.63 69.25,240.63 C73.786,240.63 77.314,237.69 77.314,233.322 L77.314,233.322 Z M70.72,233.7 C70.72,234.582 70.048,235.086 69.25,235.086 C68.452,235.086 67.738,234.582 67.738,233.7 L67.738,218.328 C67.738,217.446 68.452,216.942 69.25,216.942 C70.048,216.942 70.72,217.446 70.72,218.328 L70.72,233.7 Z M93.064,217.194 L93.064,212.028 L79.792,212.028 L79.792,240 L86.26,240 L86.26,228.492 L90.964,228.492 L90.964,223.326 L86.26,223.326 L86.26,217.194 L93.064,217.194 Z M115.408,217.572 L115.408,212.028 L99.826,212.028 L99.826,217.572 L104.362,217.572 L104.362,240 L110.83,240 L110.83,217.572 L115.408,217.572 Z M133.762,240 L133.762,212.028 L127.336,212.028 L127.336,223.62 L123.556,223.62 L123.556,212.028 L117.088,212.028 L117.088,240 L123.556,240 L123.556,229.332 L127.336,229.332 L127.336,240 L133.762,240 Z M150.142,240 L150.142,234.288 L142.918,234.288 L142.918,228.072 L147.622,228.072 L147.622,223.242 L142.918,223.242 L142.918,217.446 L150.142,217.446 L150.142,212.028 L136.45,212.028 L136.45,240 L150.142,240 Z M173.62,234.372 L173.62,230.13 C173.62,228.114 172.864,226.476 170.512,225.762 C172.948,225.216 173.62,223.242 173.62,221.394 L173.62,217.656 C173.62,213.834 170.848,212.028 167.74,212.028 L158.374,212.028 L158.374,240 L167.74,240 C170.848,240 173.62,238.194 173.62,234.372 L173.62,234.372 Z M167.572,222.444 C167.572,223.368 167.152,223.788 166.438,223.788 L164.842,223.788 L164.842,217.11 L166.438,217.11 C167.152,217.11 167.572,217.488 167.572,218.454 L167.572,222.444 Z M167.572,233.616 C167.572,234.582 167.152,234.96 166.438,234.96 L164.842,234.96 L164.842,228.198 L166.438,228.198 C167.152,228.198 167.572,228.618 167.572,229.542 L167.572,233.616 Z M192.058,233.322 L192.058,218.706 C192.058,214.38 188.53,211.44 183.994,211.44 C179.416,211.44 175.888,214.38 175.888,218.706 L175.888,233.322 C175.888,237.69 179.416,240.63 183.994,240.63 C188.53,240.63 192.058,237.69 192.058,233.322 L192.058,233.322 Z M185.464,233.7 C185.464,234.582 184.792,235.086 183.994,235.086 C183.196,235.086 182.482,234.582 182.482,233.7 L182.482,218.328 C182.482,217.446 183.196,216.942 183.994,216.942 C184.792,216.942 185.464,217.446 185.464,218.328 L185.464,233.7 Z M210.664,240 L205.876,225.342 L210.832,212.028 L204.7,212.028 L202.138,220.974 L200.038,212.028 L193.444,212.028 L198.106,226.014 L193.066,240 L199.156,240 L201.844,231.306 L204.028,240 L210.664,240 Z M232.084,240 L232.084,234.288 L224.86,234.288 L224.86,228.072 L229.564,228.072 L229.564,223.242 L224.86,223.242 L224.86,217.446 L232.084,217.446 L232.084,212.028 L218.392,212.028 L218.392,240 L232.084,240 Z M250.858,240 L250.858,212.028 L245.188,212.028 L245.188,226.434 L243.676,222.444 L239.98,212.028 L234.268,212.028 L234.268,240 L239.98,240 L239.98,225.762 L241.576,229.71 L245.524,240 L250.858,240 Z M268.078,217.572 L268.078,212.028 L252.496,212.028 L252.496,217.572 L257.032,217.572 L257.032,240 L263.5,240 L263.5,217.572 L268.078,217.572 Z M283.45,240 L283.45,234.288 L276.226,234.288 L276.226,228.072 L280.93,228.072 L280.93,223.242 L276.226,223.242 L276.226,217.446 L283.45,217.446 L283.45,212.028 L269.758,212.028 L269.758,240 L283.45,240 Z M301.846,240 L301.846,239.874 C301.426,238.53 301.048,237.102 301.048,235.338 L301.048,230.214 C301.048,228.744 299.998,227.274 298.318,226.476 C299.998,225.678 300.922,224.166 300.922,222.78 L300.922,217.908 C300.922,214.128 297.856,212.028 294.706,212.028 L285.634,212.028 L285.634,240 L292.102,240 L292.102,228.954 L293.572,228.954 C294.496,228.954 294.958,229.836 294.958,230.55 L294.958,235.674 C294.958,237.564 295.462,240 296.47,240 L301.846,240 Z M294.79,222.99 C294.79,223.956 294.412,224.334 293.698,224.334 L292.102,224.334 L292.102,217.11 L293.698,217.11 C294.412,217.11 294.79,217.488 294.79,218.454 L294.79,222.99 Z M318.142,217.572 L318.142,212.028 L302.56,212.028 L302.56,217.572 L307.096,217.572 L307.096,240 L313.564,240 L313.564,217.572 L318.142,217.572 Z M335.614,240 L330.826,212.028 L323.35,212.028 L318.478,240 L324.316,240 L324.904,235.8 L328.726,235.8 L329.146,240 L335.614,240 Z M328.138,231.012 L325.618,231.012 L327.046,220.848 L328.138,231.012 Z M343.51,240 L343.51,212.028 L337.042,212.028 L337.042,240 L343.51,240 Z M362.788,240 L362.788,212.028 L357.118,212.028 L357.118,226.434 L355.606,222.444 L351.91,212.028 L346.198,212.028 L346.198,240 L351.91,240 L351.91,225.762 L353.506,229.71 L357.454,240 L362.788,240 Z M387.61,240 L387.61,212.028 L379.21,212.028 L377.278,222.99 L376.606,227.904 L375.934,222.99 L373.918,212.028 L365.434,212.028 L365.434,240 L371.188,240 L371.188,221.184 L372.196,228.072 L374.128,240 L378.16,240 L380.26,228.072 L381.394,221.184 L381.394,240 L387.61,240 Z M403.99,240 L403.99,234.288 L396.766,234.288 L396.766,228.072 L401.47,228.072 L401.47,223.242 L396.766,223.242 L396.766,217.446 L403.99,217.446 L403.99,212.028 L390.298,212.028 L390.298,240 L403.99,240 Z M422.764,240 L422.764,212.028 L417.094,212.028 L417.094,226.434 L415.582,222.444 L411.886,212.028 L406.174,212.028 L406.174,240 L411.886,240 L411.886,225.762 L413.482,229.71 L417.43,240 L422.764,240 Z M439.984,217.572 L439.984,212.028 L424.402,212.028 L424.402,217.572 L428.938,217.572 L428.938,240 L435.406,240 L435.406,217.572 L439.984,217.572 Z" id="Quote-Emphasis" fill="#F9CD27"></path>
                    <path d="M45.724,200 L40.288,176.024 L36.688,176.024 L31.252,200 L34.564,200 L35.824,194.132 L41.008,194.132 L42.268,200 L45.724,200 Z M40.396,191.216 L36.436,191.216 L38.416,181.388 L40.396,191.216 Z M67.468,200 L67.468,176.024 L64.084,176.024 L64.084,186.428 L57.28,186.428 L57.28,176.024 L53.86,176.024 L53.86,200 L57.28,200 L57.28,189.488 L64.084,189.488 L64.084,200 L67.468,200 Z M74.776,200 L74.776,176.024 L71.356,176.024 L71.356,200 L74.776,200 Z M91.552,200 L91.552,187.688 L85.108,187.688 L85.108,190.568 L88.312,190.568 L88.312,194.276 C88.312,195.932 87.268,197.516 85,197.516 C82.732,197.516 81.724,195.932 81.724,194.276 L81.724,181.748 C81.724,180.128 82.768,178.544 85,178.544 C87.232,178.544 88.168,180.056 88.168,181.676 L88.168,183.476 L91.408,183.476 L91.408,182.072 C91.408,178.22 89.536,175.52 85,175.52 C80.5,175.52 78.304,178.544 78.304,182.072 L78.304,193.952 C78.304,197.624 80.356,200.54 84.532,200.54 C86.692,200.54 88.384,199.712 89.212,198.164 L89.86,200 L91.552,200 Z M108.544,200 L108.544,176.024 L105.16,176.024 L105.16,186.428 L98.356,186.428 L98.356,176.024 L94.936,176.024 L94.936,200 L98.356,200 L98.356,189.488 L105.16,189.488 L105.16,200 L108.544,200 Z M123.412,200 L123.412,196.904 L115.816,196.904 L115.816,176.024 L112.432,176.024 L112.432,200 L123.412,200 Z M138.748,176.024 L135.328,176.024 L131.404,187.076 L127.48,176.024 L123.808,176.024 L129.604,190.352 L129.604,200 L132.988,200 L132.988,190.352 L138.748,176.024 Z M160.096,200.252 L160.096,197.696 C159.376,197.696 159.088,197.408 159.088,196.76 L159.088,192.404 C159.088,190.496 158.152,188.588 155.884,188.228 C158.188,187.76 158.98,186.356 158.98,184.016 L158.98,181.388 C158.98,177.968 157.252,176.024 153.364,176.024 L146.416,176.024 L146.416,200 L149.836,200 L149.836,189.56 L153.22,189.56 C154.948,189.56 155.704,190.676 155.704,192.332 L155.704,197.012 C155.704,199.496 156.64,200.252 159.34,200.252 L160.096,200.252 Z M155.56,184.232 C155.56,186.032 154.66,186.968 153.004,186.968 L149.836,186.968 L149.836,178.976 L153.364,178.976 C154.984,178.976 155.56,179.948 155.56,181.316 L155.56,184.232 Z M173.812,200 L173.812,196.904 L166.036,196.904 L166.036,188.912 L171.652,188.912 L171.652,185.96 L166.036,185.96 L166.036,179.12 L173.812,179.12 L173.812,176.024 L162.652,176.024 L162.652,200 L173.812,200 Z M189.688,194.204 L189.688,191.612 L186.628,191.612 L186.628,194.132 C186.628,196.184 185.512,197.48 183.28,197.48 C181.012,197.48 179.896,196.112 179.896,194.276 L179.896,181.748 C179.896,179.912 181.012,178.544 183.28,178.544 C185.512,178.544 186.628,179.876 186.628,181.892 L186.628,184.412 L189.688,184.412 L189.688,181.82 C189.688,178.328 187.708,175.52 183.172,175.52 C178.636,175.52 176.476,178.616 176.476,182.144 L176.476,193.88 C176.476,197.408 178.636,200.54 183.172,200.54 C187.708,200.54 189.688,197.696 189.688,194.204 L189.688,194.204 Z M205.852,193.664 L205.852,182.36 C205.852,178.472 203.692,175.52 199.156,175.52 C194.656,175.52 192.46,178.472 192.46,182.36 L192.46,193.664 C192.46,197.588 194.656,200.54 199.156,200.54 C203.692,200.54 205.852,197.588 205.852,193.664 L205.852,193.664 Z M202.468,193.952 C202.468,196.004 201.388,197.48 199.156,197.48 C196.924,197.48 195.88,196.004 195.88,193.952 L195.88,182.072 C195.88,180.02 196.924,178.544 199.156,178.544 C201.388,178.544 202.468,180.02 202.468,182.072 L202.468,193.952 Z M227.344,200 L227.344,176.024 L222.592,176.024 L219.388,190.964 L218.416,195.572 L217.444,191 L214.168,176.024 L209.416,176.024 L209.416,200 L212.44,200 L212.44,181.316 L213.448,185.888 L216.652,200 L220,200 L223.276,185.888 L224.248,181.316 L224.248,200 L227.344,200 Z M249.16,200 L249.16,176.024 L244.408,176.024 L241.204,190.964 L240.232,195.572 L239.26,191 L235.984,176.024 L231.232,176.024 L231.232,200 L234.256,200 L234.256,181.316 L235.264,185.888 L238.468,200 L241.816,200 L245.092,185.888 L246.064,181.316 L246.064,200 L249.16,200 Z M264.208,200 L264.208,196.904 L256.432,196.904 L256.432,188.912 L262.048,188.912 L262.048,185.96 L256.432,185.96 L256.432,179.12 L264.208,179.12 L264.208,176.024 L253.048,176.024 L253.048,200 L264.208,200 Z M280.768,200 L280.768,176.024 L277.528,176.024 L277.528,192.116 L275.62,187.904 L269.932,176.024 L267.16,176.024 L267.16,200 L270.4,200 L270.4,184.124 L272.416,188.336 L278.356,200 L280.768,200 Z M297.796,193.52 L297.796,182.504 C297.796,178.796 295.852,176.024 291.388,176.024 L284.62,176.024 L284.62,200 L291.388,200 C295.852,200 297.796,197.228 297.796,193.52 L297.796,193.52 Z M294.412,193.376 C294.412,195.608 293.404,196.868 291.172,196.868 L288.04,196.868 L288.04,179.156 L291.172,179.156 C293.404,179.156 294.412,180.416 294.412,182.684 L294.412,193.376 Z M312.52,200 L312.52,196.904 L304.744,196.904 L304.744,188.912 L310.36,188.912 L310.36,185.96 L304.744,185.96 L304.744,179.12 L312.52,179.12 L312.52,176.024 L301.36,176.024 L301.36,200 L312.52,200 Z M328.684,193.52 L328.684,182.504 C328.684,178.796 326.74,176.024 322.276,176.024 L315.508,176.024 L315.508,200 L322.276,200 C326.74,200 328.684,197.228 328.684,193.52 L328.684,193.52 Z M325.3,193.376 C325.3,195.608 324.292,196.868 322.06,196.868 L318.928,196.868 L318.928,179.156 L322.06,179.156 C324.292,179.156 325.3,180.416 325.3,182.684 L325.3,193.376 Z M351.724,200 L351.724,176.024 L348.484,176.024 L348.484,192.116 L346.576,187.904 L340.888,176.024 L338.116,176.024 L338.116,200 L341.356,200 L341.356,184.124 L343.372,188.336 L349.312,200 L351.724,200 Z M358.996,200 L358.996,176.024 L355.576,176.024 L355.576,200 L358.996,200 Z M375.772,200 L375.772,187.688 L369.328,187.688 L369.328,190.568 L372.532,190.568 L372.532,194.276 C372.532,195.932 371.488,197.516 369.22,197.516 C366.952,197.516 365.944,195.932 365.944,194.276 L365.944,181.748 C365.944,180.128 366.988,178.544 369.22,178.544 C371.452,178.544 372.388,180.056 372.388,181.676 L372.388,183.476 L375.628,183.476 L375.628,182.072 C375.628,178.22 373.756,175.52 369.22,175.52 C364.72,175.52 362.524,178.544 362.524,182.072 L362.524,193.952 C362.524,197.624 364.576,200.54 368.752,200.54 C370.912,200.54 372.604,199.712 373.432,198.164 L374.08,200 L375.772,200 Z M392.764,200 L392.764,176.024 L389.38,176.024 L389.38,186.428 L382.576,186.428 L382.576,176.024 L379.156,176.024 L379.156,200 L382.576,200 L382.576,189.488 L389.38,189.488 L389.38,200 L392.764,200 Z M408.424,179.156 L408.424,176.024 L395.176,176.024 L395.176,179.156 L400.108,179.156 L400.108,200 L403.528,200 L403.528,179.156 L408.424,179.156 Z M429.808,193.664 L429.808,182.36 C429.808,178.472 427.648,175.52 423.112,175.52 C418.612,175.52 416.416,178.472 416.416,182.36 L416.416,193.664 C416.416,197.588 418.612,200.54 423.112,200.54 C427.648,200.54 429.808,197.588 429.808,193.664 L429.808,193.664 Z M426.424,193.952 C426.424,196.004 425.344,197.48 423.112,197.48 C420.88,197.48 419.836,196.004 419.836,193.952 L419.836,182.072 C419.836,180.02 420.88,178.544 423.112,178.544 C425.344,178.544 426.424,180.02 426.424,182.072 L426.424,193.952 Z M444.424,179.084 L444.424,175.988 L433.372,175.988 L433.372,200 L436.792,200 L436.792,189.452 L442.66,189.452 L442.66,186.464 L436.792,186.464 L436.792,179.084 L444.424,179.084 Z" id="Quote" fill="#F9CD27"></path>
                    <path d="M10.808,175.752 L10.808,184.968 L18.872,184.968 L18.872,174.816 L15.128,174.816 C15.128,171.432 16.712,170.064 18.872,170.064 L18.872,167.904 C13.976,167.904 10.808,171.36 10.808,175.752 L10.808,175.752 Z M0.944,175.752 L0.944,184.968 L8.936,184.968 L8.936,174.816 L5.192,174.816 C5.192,171.432 6.848,170.064 8.936,170.064 L8.936,167.904 C4.112,167.904 0.944,171.36 0.944,175.752 L0.944,175.752 Z" id="Open-Curly-Double-Quote" fill="#FFFCFA"></path>
                    <rect id="Right-Strike" fill="#F9CD29" transform="translate(375.000000, 136.000000) scale(1, -1) translate(-375.000000, -136.000000) " x="281" y="133" width="188" height="6"></rect>
                    <path d="M230.784,123.928 L230.784,119.032 L200.16,119.032 L200.16,123.928 L212.592,123.928 L212.592,151 L218.352,151 L218.352,123.928 L230.784,123.928 Z M265.704,137.032 L265.704,133.048 C265.704,125.08 259.416,117.928 249.096,117.928 C238.824,117.928 232.536,125.08 232.536,133.048 L232.536,137.032 C232.536,144.856 238.824,152.152 249.096,152.152 C259.416,152.152 265.704,144.856 265.704,137.032 L265.704,137.032 Z M259.896,136.936 C259.896,142.408 256.104,147.208 249.096,147.208 C242.088,147.208 238.344,142.408 238.344,136.936 L238.344,133.048 C238.344,127.576 242.088,122.872 249.096,122.872 C256.104,122.872 259.896,127.576 259.896,133.048 L259.896,136.936 Z" id="To" fill="#F9CD27"></path>
                    <rect id="Left-Strike" fill="#F9CD29" transform="translate(95.000000, 136.000000) scale(1, -1) translate(-95.000000, -136.000000) " x="1" y="133" width="188" height="6"></rect>
                    <path d="M88.892,2.764 L69.036,2.764 L61.006,59.558 L53.706,2.764 L37.938,2.764 L30.2,59.558 L22.754,2.764 L1,2.764 L18.228,100 L36.916,100 L44.654,52.404 L52.1,100 L71.08,100 L88.892,2.764 Z M142.068,100 L142.068,80.144 L116.956,80.144 L116.956,58.536 L133.308,58.536 L133.308,41.746 L116.956,41.746 L116.956,21.598 L142.068,21.598 L142.068,2.764 L94.472,2.764 L94.472,100 L142.068,100 Z M197.142,100 L197.142,80.582 L173.344,80.582 L173.344,2.764 L150.86,2.764 L150.86,100 L197.142,100 Z M258.494,76.786 L258.494,63.938 L238.784,63.938 L238.784,77.078 C238.784,80.436 236.594,82.918 232.506,82.918 C228.418,82.918 226.374,80.436 226.374,77.078 L226.374,25.686 C226.374,22.328 228.418,19.846 232.506,19.846 C236.594,19.846 238.784,22.328 238.784,25.686 L238.784,38.826 L258.494,38.826 L258.494,25.978 C258.494,10.94 248.566,0.574 232.506,0.574 C215.862,0.574 203.452,11.378 203.452,27.292 L203.452,75.472 C203.452,91.532 215.862,102.19 232.506,102.19 C248.566,102.19 258.494,91.97 258.494,76.786 L258.494,76.786 Z M323.058,76.786 L323.058,25.978 C323.058,10.94 310.794,0.72 295.026,0.72 C279.112,0.72 266.848,10.94 266.848,25.978 L266.848,76.786 C266.848,91.97 279.112,102.19 295.026,102.19 C310.794,102.19 323.058,91.97 323.058,76.786 L323.058,76.786 Z M300.136,78.1 C300.136,81.166 297.8,82.918 295.026,82.918 C292.252,82.918 289.77,81.166 289.77,78.1 L289.77,24.664 C289.77,21.598 292.252,19.846 295.026,19.846 C297.8,19.846 300.136,21.598 300.136,24.664 L300.136,78.1 Z M409.96,100 L409.96,2.764 L380.76,2.764 L374.044,40.87 L371.708,57.952 L369.372,40.87 L362.364,2.764 L332.872,2.764 L332.872,100 L352.874,100 L352.874,34.592 L356.378,58.536 L363.094,100 L377.11,100 L384.41,58.536 L388.352,34.592 L388.352,100 L409.96,100 Z M468.1,100 L468.1,80.144 L442.988,80.144 L442.988,58.536 L459.34,58.536 L459.34,41.746 L442.988,41.746 L442.988,21.598 L468.1,21.598 L468.1,2.764 L420.504,2.764 L420.504,100 L468.1,100 Z" id="Welcome" fill="#F9CD27"></path>
                </g>
            </g>
        </g>
    </g>
</svg>