<?xml version="1.0" encoding="UTF-8" standalone="no"?>
<svg width="300px" height="277px" viewBox="0 0 300 277" version="1.1" xmlns="http://www.w3.org/2000/svg" xmlns:xlink="http://www.w3.org/1999/xlink">
    <!-- Generator: Sketch 39.1 (31720) - http://www.bohemiancoding.com/sketch -->
    <title>yorks-premier-magician</title>
    <desc>Created with Sketch.</desc>
    <defs></defs>
    <g id="Index" stroke="none" stroke-width="1" fill="none" fill-rule="evenodd">
        <g id="Canvas:-1248px,-Viewport:-960px-+-48px-Gutters" transform="translate(-141.000000, -216.000000)" fill="#F9CD29">
            <g id="Main-Content" transform="translate(20.000000, 177.000000)">
                <g id="yorks-premier-magician" transform="translate(121.000000, 39.000000)">
                    <path d="M48.7642586,274.73384 L48.7642586,211.425856 L32.9847909,211.425856 L26.5209125,243.555133 L24.4296578,255.247148 L22.4334601,243.555133 L15.8745247,211.425856 L0,211.425856 L0,274.73384 L10.5513308,274.73384 L10.5513308,228.821293 L13.0228137,242.604563 L19.391635,274.73384 L28.3269962,274.73384 L35.0760456,242.604563 L37.6425856,228.821293 L37.6425856,274.73384 L48.7642586,274.73384 Z M91.730038,274.73384 L79.0874525,211.425856 L65.8745247,211.425856 L53.1368821,274.73384 L64.1634981,274.73384 L66.4448669,262.281369 L77.661597,262.281369 L79.7528517,274.73384 L91.730038,274.73384 Z M76.1406844,252.965779 L68.0608365,252.965779 L72.338403,228.536122 L76.1406844,252.965779 Z M131.463878,274.73384 L131.463878,242.604563 L113.878327,242.604563 L113.878327,251.159696 L120.057034,251.159696 L120.057034,260 C120.057034,263.136882 117.965779,265.893536 113.78327,265.893536 C109.695817,265.893536 107.509506,263.136882 107.509506,260 L107.509506,226.254753 C107.509506,223.117871 109.505703,220.361217 113.688213,220.361217 C117.870722,220.361217 119.771863,223.022814 119.771863,226.064639 L119.771863,233.098859 L131.08365,233.098859 L131.08365,226.539924 C131.08365,217.604563 125,210.095057 113.593156,210.095057 C102.186312,210.095057 95.5323194,217.889734 95.5323194,226.539924 L95.5323194,259.619772 C95.5323194,268.745247 101.330798,276.159696 111.787072,276.159696 C116.920152,276.159696 121.292776,273.878327 123.38403,269.695817 L125,274.73384 L131.463878,274.73384 Z M150.380228,274.73384 L150.380228,211.425856 L138.593156,211.425856 L138.593156,274.73384 L150.380228,274.73384 Z M193.346008,259.619772 L193.346008,251.920152 L182.794677,251.920152 L182.794677,259.524715 C182.794677,263.231939 180.703422,265.798479 176.425856,265.798479 C172.148289,265.798479 169.961977,263.231939 169.961977,259.714829 L169.961977,226.444867 C169.961977,222.927757 172.148289,220.361217 176.425856,220.361217 C180.703422,220.361217 182.794677,222.927757 182.794677,226.634981 L182.794677,234.239544 L193.346008,234.239544 L193.346008,226.539924 C193.346008,217.034221 187.452471,210 176.235741,210 C164.923954,210 157.984791,217.604563 157.984791,227.395437 L157.984791,258.764259 C157.984791,268.555133 164.923954,276.159696 176.235741,276.159696 C187.452471,276.159696 193.346008,269.125475 193.346008,259.619772 L193.346008,259.619772 Z M211.787072,274.73384 L211.787072,211.425856 L200,211.425856 L200,274.73384 L211.787072,274.73384 Z M254.847909,274.73384 L242.205323,211.425856 L228.992395,211.425856 L216.254753,274.73384 L227.281369,274.73384 L229.562738,262.281369 L240.779468,262.281369 L242.870722,274.73384 L254.847909,274.73384 Z M239.258555,252.965779 L231.178707,252.965779 L235.456274,228.536122 L239.258555,252.965779 Z M295.912548,274.73384 L295.912548,211.425856 L285.26616,211.425856 L285.26616,248.973384 L281.08365,238.897338 L269.391635,211.425856 L259.220532,211.425856 L259.220532,274.73384 L270.057034,274.73384 L270.057034,237.661597 L274.524715,247.737643 L286.787072,274.73384 L295.912548,274.73384 Z" id="MAGICIAN"></path>
                    <path d="M22.8776185,159.771775 L17.6405733,159.771775 L11.631753,176.6957 L5.62293275,159.771775 L0,159.771775 L8.87541345,181.712238 L8.87541345,196.486218 L14.0573319,196.486218 L14.0573319,181.712238 L22.8776185,159.771775 Z M45.5898567,186.783903 L45.5898567,169.47409 C45.5898567,163.520397 42.2822492,159 35.3362734,159 C28.4454245,159 25.0826902,163.520397 25.0826902,169.47409 L25.0826902,186.783903 C25.0826902,192.792723 28.4454245,197.31312 35.3362734,197.31312 C42.2822492,197.31312 45.5898567,192.792723 45.5898567,186.783903 L45.5898567,186.783903 Z M40.4079383,187.224917 C40.4079383,190.367144 38.7541345,192.627343 35.3362734,192.627343 C31.9184123,192.627343 30.3197354,190.367144 30.3197354,187.224917 L30.3197354,169.033076 C30.3197354,165.890849 31.9184123,163.63065 35.3362734,163.63065 C38.7541345,163.63065 40.4079383,165.890849 40.4079383,169.033076 L40.4079383,187.224917 Z M71.9955899,196.872106 L71.9955899,192.958104 C70.893054,192.958104 70.4520397,192.517089 70.4520397,191.524807 L70.4520397,184.854465 C70.4520397,181.932745 69.0187431,179.011025 65.5457552,178.459757 C69.0738699,177.743109 70.2866593,175.593164 70.2866593,172.009923 L70.2866593,167.985667 C70.2866593,162.748622 67.6405733,159.771775 61.6868798,159.771775 L51.047409,159.771775 L51.047409,196.486218 L56.2844542,196.486218 L56.2844542,180.499449 L61.4663727,180.499449 C64.1124587,180.499449 65.2701213,182.208379 65.2701213,184.744212 L65.2701213,191.910695 C65.2701213,195.714443 66.7034179,196.872106 70.8379272,196.872106 L71.9955899,196.872106 Z M65.0496141,172.340684 C65.0496141,175.097023 63.6714443,176.53032 61.1356119,176.53032 L56.2844542,176.53032 L56.2844542,164.292172 L61.6868798,164.292172 C64.1675854,164.292172 65.0496141,165.780595 65.0496141,167.875413 L65.0496141,172.340684 Z M96.6372657,196.486218 L87.3759647,175.538037 L96.6372657,159.771775 L91.0694598,159.771775 L81.0915105,177.632856 L81.0915105,159.771775 L75.9095921,159.771775 L75.9095921,196.486218 L81.0915105,196.486218 L81.0915105,185.130099 L84.0132304,180.113561 L90.9592062,196.486218 L96.6372657,196.486218 Z M104.024256,165.284454 L104.024256,159.771775 L99.5038589,159.771775 L99.5038589,166.001103 L101.54355,166.001103 C101.54355,168.261301 100.441014,169.584344 98.5115766,169.584344 L98.5115766,171.183021 C102.370452,171.183021 104.024256,168.702315 104.024256,165.284454 L104.024256,165.284454 Z M127.949283,187.335171 C127.949283,182.594267 125.523705,179.507166 120.176406,176.034179 C114.884234,172.616318 113.39581,170.907387 113.39581,167.654906 C113.39581,165.174201 114.884234,163.46527 117.750827,163.46527 C121.223815,163.46527 122.712238,165.890849 122.712238,168.977949 L122.712238,170.68688 L127.673649,170.68688 L127.673649,168.316428 C127.673649,162.914002 123.869901,159 117.916207,159 C111.68688,159 108.213892,163.134509 108.213892,168.371555 C108.213892,173.663727 112.568908,177.246968 116.703418,179.893054 C121.334068,182.814774 122.767365,184.854465 122.767365,188.106946 C122.767365,190.918412 121.113561,192.84785 117.916207,192.84785 C114.663727,192.84785 112.954796,190.918412 112.954796,187.169791 L112.954796,185.46086 L107.772878,185.46086 L107.772878,187.996692 C107.772878,193.343991 111.797133,197.31312 117.86108,197.31312 C123.649394,197.31312 127.949283,193.399118 127.949283,187.335171 L127.949283,187.335171 Z M160.915105,173.332966 L160.915105,168.261301 C160.915105,162.969129 158.269019,159.771775 152.315325,159.771775 L141.675854,159.771775 L141.675854,196.486218 L146.857773,196.486218 L146.857773,181.767365 L152.315325,181.767365 C158.269019,181.767365 160.915105,178.514884 160.915105,173.332966 L160.915105,173.332966 Z M155.67806,173.498346 C155.67806,175.868798 154.796031,177.302095 152.370452,177.302095 L146.857773,177.302095 L146.857773,164.292172 L152.370452,164.292172 C154.796031,164.292172 155.67806,165.670342 155.67806,168.095921 L155.67806,173.498346 Z M186.328556,196.872106 L186.328556,192.958104 C185.22602,192.958104 184.785006,192.517089 184.785006,191.524807 L184.785006,184.854465 C184.785006,181.932745 183.351709,179.011025 179.878721,178.459757 C183.406836,177.743109 184.619625,175.593164 184.619625,172.009923 L184.619625,167.985667 C184.619625,162.748622 181.973539,159.771775 176.019846,159.771775 L165.380375,159.771775 L165.380375,196.486218 L170.61742,196.486218 L170.61742,180.499449 L175.799338,180.499449 C178.445424,180.499449 179.603087,182.208379 179.603087,184.744212 L179.603087,191.910695 C179.603087,195.714443 181.036384,196.872106 185.170893,196.872106 L186.328556,196.872106 Z M179.38258,172.340684 C179.38258,175.097023 178.00441,176.53032 175.468578,176.53032 L170.61742,176.53032 L170.61742,164.292172 L176.019846,164.292172 C178.500551,164.292172 179.38258,165.780595 179.38258,167.875413 L179.38258,172.340684 Z M207.331863,196.486218 L207.331863,191.745314 L195.424476,191.745314 L195.424476,179.507166 L204.024256,179.507166 L204.024256,174.98677 L195.424476,174.98677 L195.424476,164.512679 L207.331863,164.512679 L207.331863,159.771775 L190.242558,159.771775 L190.242558,196.486218 L207.331863,196.486218 Z M239.360529,196.486218 L239.360529,159.771775 L232.083793,159.771775 L227.177508,182.649394 L225.689085,189.705623 L224.200662,182.70452 L219.184123,159.771775 L211.907387,159.771775 L211.907387,196.486218 L216.538037,196.486218 L216.538037,167.875413 L218.081588,174.876516 L222.987872,196.486218 L228.114664,196.486218 L233.131202,174.876516 L234.619625,167.875413 L234.619625,196.486218 L239.360529,196.486218 Z M250.551268,196.486218 L250.551268,159.771775 L245.314223,159.771775 L245.314223,196.486218 L250.551268,196.486218 Z M273.53914,196.486218 L273.53914,191.745314 L261.631753,191.745314 L261.631753,179.507166 L270.231533,179.507166 L270.231533,174.98677 L261.631753,174.98677 L261.631753,164.512679 L273.53914,164.512679 L273.53914,159.771775 L256.449835,159.771775 L256.449835,196.486218 L273.53914,196.486218 Z M299.062845,196.872106 L299.062845,192.958104 C297.960309,192.958104 297.519294,192.517089 297.519294,191.524807 L297.519294,184.854465 C297.519294,181.932745 296.085998,179.011025 292.61301,178.459757 C296.141125,177.743109 297.353914,175.593164 297.353914,172.009923 L297.353914,167.985667 C297.353914,162.748622 294.707828,159.771775 288.754135,159.771775 L278.114664,159.771775 L278.114664,196.486218 L283.351709,196.486218 L283.351709,180.499449 L288.533627,180.499449 C291.179713,180.499449 292.337376,182.208379 292.337376,184.744212 L292.337376,191.910695 C292.337376,195.714443 293.770673,196.872106 297.905182,196.872106 L299.062845,196.872106 Z M292.116869,172.340684 C292.116869,175.097023 290.738699,176.53032 288.202867,176.53032 L283.351709,176.53032 L283.351709,164.292172 L288.754135,164.292172 C291.23484,164.292172 292.116869,165.780595 292.116869,167.875413 L292.116869,172.340684 Z" id="YORK’S-PREMIER"></path>
                    <rect id="Left-Strike" transform="translate(150.000000, 136.000000) scale(1, -1) translate(-150.000000, -136.000000) " x="0" y="133" width="300" height="6"></rect>
                    <path d="M60.5460385,83.572996 L60.5460385,69.4840618 L38.8650964,69.4840618 L38.8650964,83.893199 C38.8650964,87.5755341 36.4561028,90.29726 31.9593148,90.29726 C27.4625268,90.29726 25.2141328,87.5755341 25.2141328,83.893199 L25.2141328,27.5374623 C25.2141328,23.8551272 27.4625268,21.1334013 31.9593148,21.1334013 C36.4561028,21.1334013 38.8650964,23.8551272 38.8650964,27.5374623 L38.8650964,41.9465995 L60.5460385,41.9465995 L60.5460385,27.8576653 C60.5460385,11.3672083 49.6252677,0 31.9593148,0 C13.6509636,0 0,11.8475128 0,29.298579 L0,82.1320822 C0,99.74325 13.6509636,111.430661 31.9593148,111.430661 C49.6252677,111.430661 60.5460385,100.223555 60.5460385,83.572996 L60.5460385,83.572996 Z M131.20985,109.029138 L131.20985,108.548834 C129.603854,103.425585 128.158458,97.9821332 128.158458,91.2578691 L128.158458,71.7254831 C128.158458,66.1219297 124.143469,60.5183764 117.719486,57.4764474 C124.143469,54.4345184 127.67666,48.6708635 127.67666,43.3875132 L127.67666,24.8157363 C127.67666,10.4065991 115.952891,2.40152287 103.907923,2.40152287 L69.2184154,2.40152287 L69.2184154,109.029138 L93.9507495,109.029138 L93.9507495,66.9224374 L99.5717345,66.9224374 C103.104925,66.9224374 104.87152,70.2845694 104.87152,73.0062953 L104.87152,92.5386813 C104.87152,99.74325 106.798715,109.029138 110.653105,109.029138 L131.20985,109.029138 Z M104.229122,44.1880208 C104.229122,47.8703559 102.783726,49.3112696 100.053533,49.3112696 L93.9507495,49.3112696 L93.9507495,21.7738074 L100.053533,21.7738074 C102.783726,21.7738074 104.229122,23.2147211 104.229122,26.8970562 L104.229122,44.1880208 Z M198.179872,109.029138 L179.87152,2.40152287 L151.284797,2.40152287 L132.655246,109.029138 L154.978587,109.029138 L157.226981,93.0189859 L171.841542,93.0189859 L173.447537,109.029138 L198.179872,109.029138 Z M169.593148,74.7674121 L159.957173,74.7674121 L165.417559,36.0228431 L169.593148,74.7674121 Z M228.372591,109.029138 L228.372591,2.40152287 L203.640257,2.40152287 L203.640257,109.029138 L228.372591,109.029138 Z M300,109.029138 L300,55.5552291 L269.486081,55.5552291 L269.486081,71.4052801 L276.231263,71.4052801 L276.231263,84.8538081 C276.231263,88.0558386 273.982869,90.617463 269.646681,90.617463 C265.631692,90.617463 263.062099,88.0558386 263.062099,84.8538081 L263.062099,26.7369546 C263.062099,23.5349241 265.310493,21.1334013 269.486081,21.1334013 C273.66167,21.1334013 275.749465,23.5349241 275.749465,26.7369546 L275.749465,42.2668025 L299.357602,42.2668025 L299.357602,26.7369546 C299.357602,13.2884266 287.473233,0.160101525 269.004283,0.160101525 C250.535332,0.160101525 237.847966,13.2884266 237.847966,26.7369546 L237.847966,84.6937066 C237.847966,99.4230469 248.286938,111.430661 265.149893,111.430661 C272.698073,111.430661 279.925054,107.428123 283.458244,100.223555 L286.188437,109.029138 L300,109.029138 Z" id="CRAIG"></path>
                </g>
            </g>
        </g>
    </g>
</svg>